SplineFontDB: 3.0
FontName: FabrikBold
FullName: FabrikBold
FamilyName: Fabrik
Weight: Bold
Copyright: OFL Open Font License
Version: Version 1.5 (20.02.2010)
DefaultBaseFilename: fabrik_b
ItalicAngle: 0
UnderlinePosition: -125
UnderlineWidth: 50
Ascent: 800
Descent: 200
LayerCount: 2
Layer: 0 1 "Back" 
Layer: 1 1 "Fore" 
XUID: [1021 639 1133821918 10871042]
UniqueID: 4017344
FSType: 0
OS2Version: 0
OS2_WeightWidthSlopeOnly: 0
OS2_UseTypoMetrics: 0
CreationTime: 1256911458
ModificationTime: 1266668017
PfmFamily: 33
TTFWeight: 600
TTFWidth: 5
LineGap: 90
VLineGap: 90
OS2TypoAscent: 0
OS2TypoAOffset: 1
OS2TypoDescent: 0
OS2TypoDOffset: 1
OS2TypoLinegap: 90
OS2WinAscent: 0
OS2WinAOffset: 1
OS2WinDescent: 0
OS2WinDOffset: 1
HheadAscent: 0
HheadAOffset: 1
HheadDescent: 0
HheadDOffset: 1
OS2Vendor: 'PfEd'
Lookup: 4 0 1 "'liga' Standard Ligatures in Latin lookup 0"  {"'liga' Standard Ligatures in Latin lookup 0 subtable"  } ['liga' ('latn' <'dflt' > ) ]
Lookup: 4 0 0 "'dlig' optionale Ligaturen in Latin lookup 1"  {"'dlig' optionale Ligaturen in Latin lookup 1 subtable"  } ['dlig' ('latn' <'dflt' > ) ]
Lookup: 258 0 0 "'kern' Horizontales Kerning in Latin lookup 0"  {"'kern' Horizontales Kerning in Latin lookup 0 subtable"  } ['kern' ('latn' <'dflt' > ) ]
DEI: 0
LangName: 1033 
Encoding: AdobeStandard
UnicodeInterp: none
NameList: Adobe Glyph List
DisplaySize: -24
AntiAlias: 1
FitToEm: 1
WinInfo: 0 32 16
BeginPrivate: 7
BlueValues 32 [-13 1 419 433 686 718 748 748 ]
OtherBlues 12 [-205 -187 ]
StdHW 4 [86]
StemSnapH 32 [20 67 77 81 86 91 444 455 467 ]
StdVW 4 [91]
StemSnapV 11 [84 91 96 ]
BlueScale 9 0.0309375
EndPrivate
TeXData: 1 0 0 368050 184025 122683 429916 1048576 122683 783286 444596 497025 792723 393216 433062 380633 303038 157286 324010 404750 52429 2506097 1059062 262144
BeginChars: 328 183

StartChar: .notdef
Encoding: 0 -1 0
AltUni2: 00fffd.ffffffff.0
Width: 500
HStem: 0 50<100 400> 483 50<100 400>
VStem: 50 50<50 483> 400 50<50 483>
LayerCount: 2
Fore
SplineSet
45 533 m 1,0,-1
 45 538 l 1,1,-1
 50 538 l 1,2,-1
 450 538 l 1,3,-1
 455 538 l 1,4,-1
 455 533 l 1,5,-1
 455 -2.18557e-07 l 1,6,-1
 455 -5 l 1,7,-1
 450 -5 l 1,8,-1
 50 -5 l 1,9,-1
 45 -5 l 1,10,-1
 45 -2.18557e-07 l 1,11,-1
 45 533 l 1,0,-1
105 55 m 1,12,-1
 395 55 l 1,13,-1
 395 478 l 1,14,-1
 105 478 l 1,15,-1
 105 55 l 1,12,-1
EndSplineSet
EndChar

StartChar: exclam
Encoding: 33 33 4
Width: 218
Flags: W
HStem: 0 21G<102.665 117.335> 673 20G<74 155>
VStem: 74 81<252 693>
LayerCount: 2
Fore
SplineSet
68.9887 698 m 1,0,-1
 160 698 l 1,1,-1
 160 247 l 1,2,-1
 68.0117 247 l 1,3,-1
 68.9887 698 l 1,0,-1
110 -5 m 128,-1,5
 86.099 -5 86.099 -5 66.5495 12.3773 c 128,-1,6
 47 29.7547 47 29.7547 47 59.5118 c 128,-1,7
 47 89.2689 47 89.2689 66.5607 106.384 c 128,-1,8
 86.1213 123.5 86.1213 123.5 110 123.5 c 128,-1,9
 133.78 123.5 133.78 123.5 153.39 107.436 c 128,-1,10
 173 91.3725 173 91.3725 173 61.0878 c 128,-1,11
 173 30.8032 173 30.8032 153.379 12.8145 c 128,-1,4
 133.948 -5 133.948 -5 110 -5 c 128,-1,5
EndSplineSet
EndChar

StartChar: quotedbl
Encoding: 34 34 5
Width: 340
Flags: W
HStem: 558 197.5<248 256.5>
LayerCount: 2
Fore
SplineSet
243.128 556.876 m 2,0,1
 240.215 569.502 240.215 569.502 217.607 625.765 c 128,-1,2
 195 682.028 195 682.028 195 704.65 c 128,-1,3
 195 727.272 195 727.272 214.061 743.886 c 128,-1,4
 233.123 760.5 233.123 760.5 256.486 760.5 c 128,-1,5
 279.84 760.5 279.84 760.5 299.42 743.906 c 128,-1,6
 319 727.312 319 727.312 319 696 c 1,7,8
 309.915 638.451 309.915 638.451 269.096 580.133 c 0,9,10
 255.19 560.266 255.19 560.266 252.287 555.427 c 2,11,-1
 245.913 544.803 l 1,12,-1
 243.128 556.876 l 2,0,1
69.128 556.876 m 2,13,14
 66.2154 569.502 66.2154 569.502 43.6077 625.765 c 128,-1,15
 21 682.028 21 682.028 21 704.65 c 128,-1,16
 21 727.272 21 727.272 40.0617 743.886 c 128,-1,17
 59.1234 760.5 59.1234 760.5 82.4858 760.5 c 128,-1,18
 105.84 760.5 105.84 760.5 125.42 743.906 c 128,-1,19
 145 727.312 145 727.312 145 696 c 1,20,21
 135.914 638.446 135.914 638.446 95.0962 580.133 c 0,22,23
 81.1907 560.266 81.1907 560.266 78.2875 555.427 c 2,24,-1
 71.9129 544.803 l 1,25,-1
 69.128 556.876 l 2,13,14
EndSplineSet
EndChar

StartChar: numbersign
Encoding: 35 35 6
Width: 455
Flags: W
HStem: 219 87<47 105 182 272 350 408> 389 91<47 105 182 272 350 408>
VStem: 105 77<70 219 306 389 480 620> 272 78<70 219 306 389 480 620>
LayerCount: 2
Fore
SplineSet
100 625 m 1,0,-1
 187 625 l 1,1,-1
 187 485 l 1,2,-1
 267 485 l 1,3,-1
 267 625 l 1,4,-1
 355 625 l 1,5,-1
 355 485 l 1,6,-1
 413 485 l 1,7,-1
 413 384 l 1,8,-1
 355 384 l 1,9,-1
 355 311 l 1,10,-1
 413 311 l 1,11,-1
 413 214 l 1,12,-1
 355 214 l 1,13,-1
 355 65 l 1,14,-1
 267 65 l 1,15,-1
 267 214 l 1,16,-1
 187 214 l 1,17,-1
 187 65 l 1,18,-1
 100 65 l 1,19,-1
 100 214 l 1,20,-1
 42 214 l 1,21,-1
 42 311 l 1,22,-1
 100 311 l 1,23,-1
 100 385 l 1,24,-1
 42 385 l 1,25,-1
 42 485 l 1,26,-1
 100 485 l 1,27,-1
 100 625 l 1,0,-1
187 384 m 1,28,-1
 187 311 l 1,29,-1
 267 311 l 1,30,-1
 267 384 l 1,31,-1
 187 384 l 1,28,-1
EndSplineSet
EndChar

StartChar: dollar
Encoding: 36 36 7
Width: 733
Flags: W
VStem: 169.48 398.28<111 237>
LayerCount: 2
Fore
SplineSet
468.009 571.099 m 1,0,1
 426.578 605.155 426.578 605.155 371.446 605.155 c 0,2,3
 345.208 605.155 345.208 605.155 317.502 589.998 c 128,-1,4
 289.795 574.841 289.795 574.841 277.629 533.65 c 0,5,6
 277.545 533.365 277.545 533.365 277.545 519.75 c 128,-1,7
 277.545 506.135 277.545 506.135 287.784 486.684 c 128,-1,8
 298.022 467.233 298.022 467.233 326.812 447.626 c 128,-1,9
 355.602 428.019 355.602 428.019 394.755 415 c 128,-1,10
 433.908 401.981 433.908 401.981 442.89 400.337 c 0,11,12
 487.843 392.111 487.843 392.111 538.637 333.982 c 0,13,14
 572.756 294.936 572.756 294.936 572.756 237.134 c 0,15,16
 572.756 157.049 572.756 157.049 529.047 101.9 c 128,-1,17
 485.337 46.751 485.337 46.751 408.298 27.2129 c 1,18,-1
 416.437 -35 l 1,19,-1
 330.32 -35 l 1,20,-1
 337.346 22.3761 l 1,21,22
 252.86 22.3761 252.86 22.3761 163.091 109.938 c 1,23,-1
 208.34 188.245 l 1,24,25
 277.151 113.893 277.151 113.893 355.555 113.893 c 0,26,27
 420.749 113.893 420.749 113.893 463.237 175.523 c 1,28,29
 477.085 204.13 477.085 204.13 477.085 224.429 c 128,-1,30
 477.085 244.728 477.085 244.728 470.562 259.206 c 0,31,32
 452.863 298.484 452.863 298.484 406.005 316.306 c 0,33,34
 391.464 321.837 391.464 321.837 369.155 328.858 c 0,35,36
 269.469 360.234 269.469 360.234 226.425 408.733 c 128,-1,37
 183.382 457.232 183.382 457.232 183.382 528.252 c 128,-1,38
 183.382 599.272 183.382 599.272 228.181 637.755 c 128,-1,39
 272.979 676.238 272.979 676.238 338.049 686.204 c 1,40,-1
 324.937 755 l 1,41,-1
 411.717 755 l 1,42,-1
 399.733 686.919 l 1,43,44
 467.538 686.919 467.538 686.919 513.997 640.847 c 1,45,-1
 468.009 571.099 l 1,0,1
EndSplineSet
EndChar

StartChar: percent
Encoding: 37 37 8
Width: 560
Flags: W
HStem: 515 57<129.166 168.989>
VStem: 40 67<449.51 494.014> 190 69<449.716 495.66> 304 67<137.599 183.607> 454 70<138.51 184.529>
LayerCount: 2
Fore
SplineSet
148.5 510 m 128,-1,1
 134.896 510 134.896 510 123.448 499.875 c 128,-1,2
 112 489.749 112 489.749 112 469.357 c 128,-1,3
 112 448.965 112 448.965 130.402 438.885 c 0,4,5
 139.781 433.748 139.781 433.748 148.874 433.748 c 128,-1,6
 157.941 433.748 157.941 433.748 167.053 438.861 c 0,7,8
 185 448.93 185 448.93 185 470.272 c 128,-1,9
 185 491.615 185 491.615 173.615 500.807 c 128,-1,0
 162.229 510 162.229 510 148.5 510 c 128,-1,1
51.8399 532.774 m 0,10,11
 81.3282 577 81.3282 577 149.5 577 c 0,12,13
 179.197 577 179.197 577 204.772 563.954 c 128,-1,14
 230.428 550.867 230.428 550.867 247.16 525.774 c 128,-1,15
 264 500.519 264 500.519 264 469.019 c 0,16,17
 264 435.538 264 435.538 247.211 409.305 c 128,-1,18
 230.443 383.103 230.443 383.103 204.662 370.741 c 0,19,20
 179.132 358.5 179.132 358.5 149.5 358.5 c 128,-1,21
 119.934 358.5 119.934 358.5 94.4899 369.672 c 0,22,23
 68.5851 381.046 68.5851 381.046 51.7652 407.842 c 128,-1,24
 35 434.551 35 434.551 35 471.977 c 0,25,26
 35 507.518 35 507.518 51.8399 532.774 c 0,10,11
394.32 193.571 m 0,27,28
 376 183.977 376 183.977 376 160.501 c 128,-1,29
 376 137.024 376 137.024 394.32 127.429 c 0,30,31
 403.496 122.623 403.496 122.623 412.607 122.623 c 128,-1,32
 421.719 122.623 421.719 122.623 431.053 127.861 c 0,33,34
 449 137.93 449 137.93 449 161.435 c 128,-1,35
 449 184.941 449 184.941 431.22 194.05 c 0,36,37
 422.288 198.626 422.288 198.626 413.13 198.626 c 128,-1,38
 403.973 198.626 403.973 198.626 394.32 193.571 c 0,27,28
316.38 221.832 m 0,39,40
 346.396 265.5 346.396 265.5 413.5 265.5 c 0,41,42
 443.229 265.5 443.229 265.5 468.814 252.182 c 128,-1,43
 494.399 238.865 494.399 238.865 511.592 214.373 c 0,44,45
 529 189.575 529 189.575 529 157 c 0,46,47
 529 123.468 529 123.468 511.647 97.7066 c 128,-1,48
 494.415 72.1253 494.415 72.1253 468.737 59.2784 c 128,-1,49
 443.196 46.5 443.196 46.5 413.5 46.5 c 128,-1,50
 383.926 46.5 383.926 46.5 358.956 57.687 c 0,51,52
 333.606 69.0443 333.606 69.0443 316.302 95.7836 c 128,-1,53
 299 122.521 299 122.521 299 160 c 0,54,55
 299 196.547 299 196.547 316.38 221.832 c 0,39,40
462.001 566.195 m 1,56,-1
 525.953 499.999 l 1,57,-1
 85.9992 44.8046 l 1,58,-1
 22.047 111.001 l 1,59,-1
 462.001 566.195 l 1,56,-1
EndSplineSet
EndChar

StartChar: ampersand
Encoding: 38 38 9
Width: 520
Flags: W
HStem: -8.28999 82.34<177.212 273.57> 325.99 84.52<208.917 372.97 455.78 510.44> 545.43 86.07<229.344 293.592>
VStem: 8.99004 83.2401<172.385 248.768> 95.12 87.59<444.055 502.63> 372.97 82.81<167.265 357.409>
LayerCount: 2
Fore
SplineSet
502.94 415 m 2,0,-1
 515.44 415 l 1,1,-1
 515.44 320.99 l 1,2,-1
 460.789 320.99 l 1,3,4
 460.94 237.667 460.94 237.667 460.94 209.11 c 0,5,6
 460.94 152.197 460.94 152.197 428.939 97.7867 c 0,7,8
 397.372 44.1154 397.372 44.1154 343.398 15.2966 c 0,9,10
 289.86 -13.29 289.86 -13.29 228.865 -13.29 c 128,-1,11
 167.869 -13.29 167.869 -13.29 117.426 16.9335 c 128,-1,12
 66.9836 47.1571 66.9836 47.1571 35.5276 99.349 c 128,-1,13
 3.99004 151.677 3.99004 151.677 3.99004 211.1 c 128,-1,14
 3.99004 270.379 3.99004 270.379 31.6537 322.427 c 128,-1,15
 59.3174 374.476 59.3174 374.476 104.028 404.721 c 1,16,17
 90.12 436.052 90.12 436.052 90.12 460.84 c 0,18,19
 90.12 547.717 90.12 547.717 151.325 598.285 c 0,20,21
 197.579 636.5 197.579 636.5 254.14 636.5 c 0,22,23
 291.393 636.5 291.393 636.5 327.878 620.366 c 0,24,25
 366.278 603.385 366.278 603.385 391.193 568.058 c 1,26,-1
 322.403 499.134 l 1,27,28
 299.57 539.631 299.57 539.631 263.623 539.631 c 128,-1,29
 227.675 539.631 227.675 539.631 207.693 521.491 c 128,-1,30
 187.71 503.351 187.71 503.351 187.71 478.258 c 128,-1,31
 187.71 453.165 187.71 453.165 197.092 434.083 c 128,-1,32
 206.475 415 206.475 415 244.81 415 c 1,33,-1
 378.66 415 l 1,34,35
 463.988 415 463.988 415 502.94 415 c 2,0,-1
225.449 320.99 m 1,36,-1
 150.28 320.99 l 2,37,38
 132.99 320.99 132.99 320.99 115.11 284.254 c 128,-1,39
 97.2301 247.518 97.2301 247.518 97.2301 208.071 c 128,-1,40
 97.2301 168.624 97.2301 168.624 121.792 136.486 c 0,41,42
 165.688 79.05 165.688 79.05 233.27 79.05 c 0,43,44
 278.079 79.05 278.079 79.05 310.786 104.167 c 128,-1,45
 343.493 129.284 343.493 129.284 355.736 159.469 c 128,-1,46
 367.978 189.653 367.978 189.653 367.974 207.965 c 128,-1,47
 367.97 226.276 367.97 226.276 367.97 320.99 c 1,48,-1
 225.449 320.99 l 1,36,-1
EndSplineSet
EndChar

StartChar: quotesingle
Encoding: 169 39 10
Width: 154
Flags: W
HStem: 558 199<74 76>
VStem: 20 112<663.278 724.314>
LayerCount: 2
Fore
SplineSet
73.7852 466.309 m 5,0,1
 15 551.1 15 551.1 15 618 c 4,2,3
 15 646.202 15 646.202 34.0283 662.601 c 132,-1,4
 53.0566 679 53.0566 679 76 679 c 132,-1,5
 98.8037 679 98.8037 679 117.902 663.175 c 132,-1,6
 137 647.35 137 647.35 137 614.11 c 132,-1,7
 137 580.87 137 580.87 117.653 540.142 c 4,8,9
 96.9229 496.304 96.9229 496.304 73.7852 466.309 c 5,0,1
EndSplineSet
EndChar

StartChar: parenleft
Encoding: 40 40 11
Width: 268
Flags: W
VStem: 40 94<54.01 567.19>
LayerCount: 2
Fore
SplineSet
139 148 m 1,0,1
 139 35.5339 139 35.5339 233 -21.225 c 1,2,-1
 233 -144.038 l 1,3,4
 157.4 -108.66 157.4 -108.66 96.2002 -35.5282 c 128,-1,5
 35 37.604 35 37.604 35 148 c 1,6,-1
 35 502 l 2,7,8
 35 601.576 35 601.576 95.133 674.889 c 0,9,10
 156.988 750.875 156.988 750.875 234 782.645 c 1,11,-1
 234 669.314 l 1,12,13
 139 608.212 139 608.212 139 505 c 1,14,-1
 139 148 l 1,0,1
EndSplineSet
EndChar

StartChar: parenright
Encoding: 41 41 12
Width: 295
Flags: W
VStem: 147 95<62.471 571>
LayerCount: 2
Fore
SplineSet
142 507 m 1,0,1
 142 610.888 142 610.888 48 672.337 c 1,2,-1
 48 787 l 1,3,4
 134.022 750.101 134.022 750.101 190.511 677.922 c 128,-1,5
 247 605.742 247 605.742 247 505 c 1,6,-1
 247 150 l 2,7,8
 247 47.3059 247 47.3059 190.629 -26.3317 c 0,9,10
 132.127 -102.92 132.127 -102.92 48 -141.998 c 1,11,-1
 48 -19.2493 l 1,12,13
 142 38.4848 142 38.4848 142 150 c 1,14,-1
 142 507 l 1,0,1
EndSplineSet
EndChar

StartChar: asterisk
Encoding: 42 42 13
Width: 212
Flags: W
HStem: 370.237 7.6<385.52 392.786 407.32 412.92>
VStem: 395.32 8<379.117 385.637>
LayerCount: 2
Fore
SplineSet
80.3633 772.722 m 1,0,-1
 132.5 772.722 l 1,1,-1
 132.5 714.382 l 1,2,-1
 187.475 732.246 l 1,3,-1
 203.567 682.654 l 1,4,-1
 148.121 664.643 l 1,5,-1
 182.246 617.67 l 1,6,-1
 140.066 587.026 l 1,7,-1
 106.025 633.872 l 1,8,-1
 72.2094 587.336 l 1,9,-1
 30.0299 617.981 l 1,10,-1
 64.0582 664.824 l 1,11,-1
 8.93273 682.727 l 1,12,-1
 25.0253 732.32 l 1,13,-1
 80.3633 714.34 l 1,14,-1
 80.3633 772.722 l 1,0,-1
EndSplineSet
EndChar

StartChar: plus
Encoding: 43 43 14
Width: 495
Flags: W
HStem: 321 80<64 209 290 431>
VStem: 209 81<160 320 401 549>
LayerCount: 2
Fore
SplineSet
295 316 m 1,0,-1
 295 155 l 1,1,-1
 204 155 l 1,2,-1
 204 315 l 1,3,-1
 59 315 l 1,4,-1
 59 403 l 1,5,-1
 204 403 l 1,6,-1
 204 554 l 1,7,-1
 294 554 l 1,8,-1
 294 406 l 1,9,-1
 436 406 l 1,10,-1
 436 316 l 1,11,-1
 295 316 l 1,0,-1
EndSplineSet
EndChar

StartChar: comma
Encoding: 44 44 15
Width: 154
Flags: W
LayerCount: 2
Fore
SplineSet
67.0684 23.176 m 1,0,1
 66.3551 23.4793 66.3551 23.4793 63.1609 22.5455 c 128,-1,2
 59.9667 21.6117 59.9667 21.6117 50.5979 21.6117 c 128,-1,3
 41.229 21.6117 41.229 21.6117 28.1145 34.2454 c 128,-1,4
 15 46.8791 15 46.8791 15 72.0754 c 128,-1,5
 15 97.2717 15 97.2717 34.0617 113.886 c 128,-1,6
 53.1234 130.5 53.1234 130.5 76.5014 130.5 c 130,-1,7
 99.8397 130.5 99.8397 130.5 119.42 113.906 c 128,-1,8
 139 97.3116 139 97.3116 139 71.0533 c 128,-1,9
 139 44.7949 139 44.7949 129.641 28.063 c 128,-1,10
 120.283 11.3311 120.283 11.3311 112.044 0 c 128,-1,11
 103.669 -11.5175 103.669 -11.5175 84.7009 -28.3713 c 128,-1,12
 65.7328 -45.2251 65.7328 -45.2251 61.5953 -47.2926 c 128,-1,13
 57.4577 -49.3602 57.4577 -49.3602 41.65 -59.24 c 2,14,-1
 15.2043 -75.7686 l 1,15,-1
 35.1573 -51.801 l 2,16,17
 54.4925 -28.5755 54.4925 -28.5755 65.1924 8.87362 c 0,18,19
 67.2512 16.0793 67.2512 16.0793 67.2512 19.0807 c 128,-1,20
 67.2512 22.082 67.2512 22.082 67.0684 23.176 c 1,0,1
EndSplineSet
EndChar

StartChar: hyphen
Encoding: 45 45 16
Width: 404
Flags: W
HStem: 222 81<49 438>
LayerCount: 2
Fore
SplineSet
357 217 m 1,0,-1
 44 217 l 1,1,-1
 44 308 l 1,2,-1
 357 308 l 1,3,-1
 357 217 l 1,0,-1
EndSplineSet
EndChar

StartChar: period
Encoding: 46 46 17
Width: 190
Flags: W
HStem: 0 21G<65.665 80.335>
LayerCount: 2
Fore
SplineSet
29.7075 106.513 m 0,0,1
 49.1213 123.5 49.1213 123.5 73 123.5 c 128,-1,2
 96.7804 123.5 96.7804 123.5 116.168 107.618 c 0,3,4
 136 91.3726 136 91.3726 136 62 c 0,5,6
 136 30.8032 136 30.8032 116.379 12.8145 c 128,-1,7
 96.9479 -5 96.9479 -5 73 -5 c 128,-1,8
 49.099 -5 49.099 -5 29.6782 12.263 c 0,9,10
 10 29.7547 10 29.7547 10 60 c 0,11,12
 10 89.2688 10 89.2688 29.7075 106.513 c 0,0,1
EndSplineSet
EndChar

StartChar: slash
Encoding: 47 47 18
Width: 390
Flags: W
HStem: 0 21G<2 87> 684 20G<276 356>
VStem: 2 354<0 704>
LayerCount: 2
Fore
SplineSet
108.442 -5 m 1,0,-1
 12.6885 -5 l 1,1,-1
 290.581 709 l 1,2,-1
 381.263 709 l 1,3,-1
 108.442 -5 l 1,0,-1
EndSplineSet
EndChar

StartChar: zero
Encoding: 48 48 19
Width: 569
Flags: W
HStem: -6.7622 81.1626<214.241 362.21> 634.756 81.1626<214.241 362.21>
VStem: 48.4525 480.304<171.62 211.898 191.697 191.697>
LayerCount: 2
Fore
SplineSet
439.009 506.571 m 4,0,1
 428.957 559.114 428.957 559.114 386.2 594.46 c 132,-1,2
 343.442 629.806 343.442 629.806 288.317 629.806 c 132,-1,3
 233.192 629.806 233.192 629.806 190.928 594.632 c 132,-1,4
 148.664 559.459 148.664 559.459 138.194 506.545 c 4,5,6
 123.404 431.801 123.404 431.801 123.404 355.509 c 132,-1,7
 123.404 279.215 123.404 279.215 138.197 203.768 c 4,8,9
 148.958 148.877 148.958 148.877 191.066 114.115 c 132,-1,10
 233.18 79.3506 233.18 79.3506 288.317 79.3506 c 132,-1,11
 343.455 79.3506 343.455 79.3506 386.071 114.295 c 132,-1,12
 428.686 149.24 428.686 149.24 439.006 203.739 c 4,13,14
 452.928 277.257 452.928 277.257 452.928 355.536 c 132,-1,15
 452.928 433.815 452.928 433.815 439.009 506.571 c 4,0,1
449.015 42.1613 m 128,-1,17
 379.125 -15.4121 379.125 -15.4121 288.331 -15.4121 c 128,-1,18
 197.538 -15.4121 197.538 -15.4121 127.634 41.9375 c 128,-1,19
 57.7308 99.2872 57.7308 99.2872 41.5196 186.953 c 128,-1,20
 25.3085 274.618 25.3085 274.618 25.3085 354.578 c 128,-1,21
 25.3085 434.538 25.3085 434.538 41.5196 522.203 c 128,-1,22
 57.7307 609.868 57.7307 609.868 127.635 667.218 c 128,-1,23
 197.539 724.568 197.539 724.568 288.331 724.568 c 128,-1,24
 379.124 724.568 379.124 724.568 449.015 666.994 c 128,-1,25
 518.972 609.366 518.972 609.366 535.441 523.473 c 128,-1,26
 551.91 437.58 551.91 437.58 551.91 354.578 c 128,-1,27
 551.91 271.576 551.91 271.576 535.441 185.683 c 128,-1,16
 518.972 99.7898 518.972 99.7898 449.015 42.1613 c 128,-1,17
EndSplineSet
EndChar

StartChar: one
Encoding: 49 49 20
Width: 289
Flags: W
HStem: 0 21G<169.771 253.771>
VStem: 169.771 84<0 510.18>
LayerCount: 2
Fore
SplineSet
164.521 497.446 m 1,0,-1
 144.506 476.916 l 1,1,-1
 69.1357 535.606 l 1,2,-1
 255.021 732.506 l 1,3,-1
 255.021 -5 l 1,4,-1
 164.521 -5 l 1,5,-1
 164.521 497.446 l 1,0,-1
EndSplineSet
EndChar

StartChar: two
Encoding: 50 50 21
Width: 483
Flags: W
HStem: 0 81<161.648 438.81> 626.5 81.5<186.851 359.192>
VStem: 353.5 74.3209<484.264 578.065>
LayerCount: 2
Fore
SplineSet
265 621.5 m 0,0,1
 200.851 621.5 200.851 621.5 149.916 534.29 c 1,2,-1
 93.0204 601.416 l 1,3,4
 141.694 662.352 141.694 662.352 180.168 687.676 c 128,-1,5
 218.643 713 218.643 713 260.625 713 c 0,6,7
 339.035 713 339.035 713 392 671.45 c 0,8,9
 450.821 625.305 450.821 625.305 450.821 527.801 c 0,10,11
 450.821 484.19 450.821 484.19 433.805 448.409 c 128,-1,12
 416.788 412.628 416.788 412.628 348.803 315.046 c 2,13,-1
 189.225 86 l 1,14,-1
 461.81 86 l 1,15,-1
 461.81 -5 l 1,16,-1
 12.789 -5 l 1,17,-1
 299.008 399.992 l 2,18,19
 347.59 468.824 347.59 468.824 357.045 487.961 c 128,-1,20
 366.5 507.097 366.5 507.097 366.5 527.916 c 0,21,22
 366.5 591.351 366.5 591.351 315.803 612.569 c 0,23,24
 294.464 621.5 294.464 621.5 265 621.5 c 0,0,1
EndSplineSet
EndChar

StartChar: three
Encoding: 51 51 22
Width: 510
Flags: W
HStem: -12.95 78.9764<155.735 288.801> 614.716 77.5944<92.92 379.776>
VStem: 404.941 77.5986<148.319 276.483>
LayerCount: 2
Fore
SplineSet
162 368.949 m 0,0,-1
 345 616 l 1,1,-1
 88 616 l 1,2,-1
 88 704 l 1,3,-1
 510 704 l 1,4,-1
 313 431 l 0,5,6
 488 413 488 413 488 214 c 0,7,8
 488 -11 488 -11 236.5 -11 c 0,9,10
 124.413 -11 124.413 -11 42 52 c 1,11,-1
 90 126 l 1,12,13
 180 78 180 78 236 78 c 0,14,15
 390 78 390 78 390 218 c 0,16,17
 390 368.949 390 368.949 238 368.949 c 0,18,-1
 162 368.949 l 0,0,-1
EndSplineSet
EndChar

StartChar: four
Encoding: 52 52 23
Width: 505
Flags: W
HStem: 0 21G<325.5 408.19> 157.5 79.4004<163.06 325.5 408.19 492.18>
VStem: 327.51 79.7097<0 157.49 237.91 361.52>
LayerCount: 2
Fore
SplineSet
386.658 726.579 m 1,0,-1
 456.251 677.477 l 1,1,-1
 172.288 241.9 l 1,2,-1
 322.51 241.9 l 1,3,-1
 322.51 362.95 l 1,4,-1
 412.22 507.008 l 1,5,-1
 412.22 242.91 l 1,6,-1
 497.18 242.91 l 1,7,-1
 497.18 152.49 l 1,8,-1
 413.19 152.49 l 1,9,-1
 413.19 -5 l 1,10,-1
 320.5 -5 l 1,11,-1
 320.5 152.5 l 1,12,-1
 7.70839 152.5 l 1,13,-1
 386.658 726.579 l 1,0,-1
EndSplineSet
EndChar

StartChar: five
Encoding: 53 53 24
Width: 408
Flags: W
HStem: -11.1 82.3676<111.254 277.684> 358.303 72.3672<95.9297 231.55> 616.66 79.3398<121.13 328.92>
VStem: 298.969 81.8311<118.727 290.483>
LayerCount: 2
Fore
SplineSet
71.3204 112.952 m 1,0,1
 116.107 76.2676 116.107 76.2676 159.787 76.2676 c 0,2,3
 222.214 76.2676 222.214 76.2676 258.091 116.012 c 128,-1,4
 293.969 155.757 293.969 155.757 293.969 213.906 c 128,-1,5
 293.969 272.056 293.969 272.056 253.204 312.676 c 128,-1,6
 212.432 353.303 212.432 353.303 154.882 353.303 c 2,7,-1
 3.33126 353.303 l 1,8,-1
 45.3377 701 l 1,9,-1
 333.92 701 l 1,10,-1
 333.92 611.66 l 1,11,-1
 125.498 611.66 l 1,12,-1
 101.653 435.67 l 1,13,-1
 151.6 435.67 l 2,14,15
 258.881 435.67 258.881 435.67 322.341 371.741 c 128,-1,16
 385.8 307.812 385.8 307.812 385.8 210.428 c 128,-1,17
 385.8 113.043 385.8 113.043 326.156 48.4715 c 128,-1,18
 266.513 -16.1 266.513 -16.1 168.876 -16.1 c 0,19,20
 67.4776 -16.1 67.4776 -16.1 2.33649 43.0577 c 1,21,-1
 71.3204 112.952 l 1,0,1
EndSplineSet
EndChar

StartChar: six
Encoding: 54 54 25
Width: 527
VWidth: 990
Flags: W
HStem: -9.34863 80.2949<186.353 338.002> 351.209 80.8516<216.698 343.236>
VStem: 43.2031 77.8975<130.994 268.475> 267.739 84.1201<628.957 713.077> 403.783 79.502<131.036 287.264>
LayerCount: 2
Fore
SplineSet
104.623 50.3865 m 128,-1,1
 38.2031 115.171 38.2031 115.171 38.2031 211.334 c 0,2,3
 38.2031 256.448 38.2031 256.448 67.5109 316.202 c 2,4,-1
 264.622 718.077 l 1,5,-1
 359.986 718.077 l 1,6,-1
 214.83 430.671 l 1,7,8
 235.276 437.061 235.276 437.061 263.265 437.061 c 0,9,10
 355.548 437.061 355.548 437.061 421.891 372.331 c 128,-1,11
 488.285 307.551 488.285 307.551 488.285 211.334 c 128,-1,12
 488.285 115.135 488.285 115.135 421.876 50.3687 c 128,-1,13
 355.517 -14.3486 355.517 -14.3486 263.265 -14.3486 c 128,-1,0
 170.991 -14.3486 170.991 -14.3486 104.623 50.3865 c 128,-1,1
164.111 309.236 m 128,-1,15
 126.101 272.325 126.101 272.325 126.101 212.072 c 128,-1,16
 126.101 151.849 126.101 151.849 165.923 113.948 c 128,-1,17
 205.851 75.9463 205.851 75.9463 262.177 75.9463 c 128,-1,18
 318.527 75.9463 318.527 75.9463 358.723 113.651 c 128,-1,19
 398.783 151.227 398.783 151.227 398.783 209.149 c 128,-1,20
 398.783 267.219 398.783 267.219 360.584 306.75 c 128,-1,21
 322.455 346.209 322.455 346.209 262.365 346.209 c 128,-1,14
 202.186 346.209 202.186 346.209 164.111 309.236 c 128,-1,15
EndSplineSet
EndChar

StartChar: seven
Encoding: 55 55 26
Width: 438
Flags: W
HStem: 0 21G<5 93> 609 81<31 287>
VStem: 5 411<0 690>
LayerCount: 2
Fore
SplineSet
26 695 m 1,0,-1
 423.861 695 l 1,1,-1
 96.1801 -5 l 1,2,-1
 -2.82531 -5 l 1,3,-1
 279.175 604 l 1,4,-1
 26 604 l 1,5,-1
 26 695 l 1,0,-1
EndSplineSet
EndChar

StartChar: eight
Encoding: 56 56 27
Width: 459
Flags: W
HStem: -3.47656 78.5215<183.583 279.229> 342.405 53.3877<189.009 269.79> 623.317 81.0791<189.009 269.79>
VStem: 14.7715 83.3506<160.764 256.696> 31.2256 85.624<469.88 550.906> 341.98 80.373<469.88 550.892> 364.718 81.3906<160.764 256.683>
LayerCount: 2
Fore
SplineSet
368.588 650.457 m 128,-1,1
 427.354 591.517 427.354 591.517 427.354 510.965 c 0,2,3
 427.354 433.201 427.354 433.201 378.614 376.84 c 1,4,5
 451.108 311.454 451.108 311.454 451.108 217.454 c 0,6,7
 451.108 121.222 451.108 121.222 386.452 56.3727 c 128,-1,8
 321.796 -8.47656 321.796 -8.47656 230.44 -8.47656 c 128,-1,9
 139.087 -8.47656 139.087 -8.47656 74.4293 56.3727 c 128,-1,10
 9.7715 121.222 9.7715 121.222 9.7715 215.857 c 0,11,12
 9.7715 308.143 9.7715 308.143 78.2379 373.087 c 1,13,14
 26.2256 430.264 26.2256 430.264 26.2256 509.553 c 0,15,16
 26.2256 591.507 26.2256 591.507 84.9858 650.452 c 128,-1,17
 143.746 709.396 143.746 709.396 226.784 709.396 c 128,-1,0
 309.822 709.396 309.822 709.396 368.588 650.457 c 128,-1,1
229.399 618.317 m 128,-1,19
 184.885 618.317 184.885 618.317 153.367 586.686 c 128,-1,20
 121.85 555.055 121.85 555.055 121.85 510.379 c 128,-1,21
 121.85 465.669 121.85 465.669 153.405 433.203 c 128,-1,22
 184.904 400.793 184.904 400.793 229.399 400.793 c 128,-1,23
 273.9 400.793 273.9 400.793 305.415 433.204 c 128,-1,24
 336.98 465.665 336.98 465.665 336.98 510.379 c 128,-1,25
 336.98 555.056 336.98 555.056 305.453 586.687 c 128,-1,18
 273.927 618.317 273.927 618.317 229.399 618.317 c 128,-1,19
231.399 337.405 m 128,-1,27
 178.286 337.405 178.286 337.405 140.704 299.703 c 128,-1,28
 103.122 262 103.122 262 103.122 208.73 c 128,-1,29
 103.122 155.454 103.122 155.454 140.704 117.749 c 128,-1,30
 178.286 80.0449 178.286 80.0449 231.399 80.0449 c 128,-1,31
 284.521 80.0449 284.521 80.0449 322.105 117.739 c 128,-1,32
 359.718 155.463 359.718 155.463 359.718 208.73 c 128,-1,33
 359.718 261.99 359.718 261.99 322.105 299.71 c 128,-1,26
 284.517 337.405 284.517 337.405 231.399 337.405 c 128,-1,27
EndSplineSet
EndChar

StartChar: nine
Encoding: 57 57 28
Width: 474
VWidth: 990
Flags: W
HStem: 0 21G<144.629 145.243 144.629 228.749> 304.365 81.666<137.263 277.838> 631.875 81.2021<148.289 320.235>
VStem: 29.502 80.4258<421.891 605.039> 357.896 79.0908<450.53 605.797>
LayerCount: 2
Fore
SplineSet
380.5 658 m 128,-1,1
 442 598 442 598 442 509 c 0,2,3
 442 465 442 465 433 445 c 2,4,-1
 232 -5 l 1,5,-1
 137 -5 l 1,6,-1
 278 305 l 1,7,8
 259 299 259 299 233 299 c 0,9,10
 148 299 148 299 86.5 359 c 128,-1,11
 25 419 25 419 25 508.5 c 128,-1,12
 25 598 25 598 86.5 658 c 128,-1,13
 148 718 148 718 233.5 718 c 128,-1,0
 319 718 319 718 380.5 658 c 128,-1,1
320 423 m 128,-1,15
 353 455 353 455 353 508 c 128,-1,16
 353 561 353 561 318 594 c 128,-1,17
 283 627 283 627 234 627 c 128,-1,18
 185 627 185 627 150 594 c 128,-1,19
 115 561 115 561 115 510.5 c 128,-1,20
 115 460 115 460 148.5 425.5 c 128,-1,21
 182 391 182 391 234.5 391 c 128,-1,14
 287 391 287 391 320 423 c 128,-1,15
EndSplineSet
EndChar

StartChar: colon
Encoding: 58 58 29
Width: 161
Flags: W
VStem: 22 117<49.0525 101.105 384.858 432.457>
LayerCount: 2
Fore
SplineSet
37.3185 453.107 m 0,0,1
 57.193 469.5 57.193 469.5 80.5 469.5 c 128,-1,2
 103.708 469.5 103.708 469.5 123.552 454.211 c 0,3,4
 143.997 438.458 143.997 438.458 144 410 c 0,5,6
 144.003 380.669 144.003 380.669 123.711 363.667 c 0,7,8
 103.817 347 103.817 347 80.5 347 c 128,-1,9
 57.2223 347 57.2223 347 37.3505 363.117 c 0,10,11
 17.0028 379.619 17.0028 379.619 17 409 c 0,12,13
 16.9974 436.346 16.9974 436.346 37.3185 453.107 c 0,0,1
35.7075 121.513 m 0,14,15
 55.1213 138.5 55.1213 138.5 79 138.5 c 128,-1,16
 102.78 138.5 102.78 138.5 122.168 122.618 c 0,17,18
 142 106.373 142 106.373 142 77 c 0,19,20
 142 45.8032 142 45.8032 122.379 27.8145 c 128,-1,21
 102.948 10 102.948 10 79 10 c 128,-1,22
 55.099 10 55.099 10 35.6782 27.263 c 0,23,24
 16 44.7547 16 44.7547 16 75 c 0,25,26
 16 104.269 16 104.269 35.7075 121.513 c 0,14,15
EndSplineSet
EndChar

StartChar: semicolon
Encoding: 59 59 30
Width: 154
Flags: W
LayerCount: 2
Fore
SplineSet
12 415 m 128,-1,1
 12 443 12 443 31.5 459 c 128,-1,2
 51 475 51 475 75 475 c 128,-1,3
 99 475 99 475 118.5 459.5 c 128,-1,4
 138 444 138 444 138 415 c 128,-1,5
 138 386 138 386 118.5 369.5 c 128,-1,6
 99 353 99 353 75 353 c 128,-1,7
 51 353 51 353 31.5 370 c 128,-1,0
 12 387 12 387 12 415 c 128,-1,1
69 45 m 2,8,-1
 58 45 l 2,9,10
 45 45 45 45 31 57 c 128,-1,11
 17 69 17 69 17 94 c 128,-1,12
 17 119 17 119 36.5 136.5 c 128,-1,13
 56 154 56 154 79.5 154 c 128,-1,14
 103 154 103 154 122 136.5 c 128,-1,15
 141 119 141 119 141 93.5 c 128,-1,16
 141 68 141 68 132 48 c 128,-1,17
 123 28 123 28 115 17 c 128,-1,18
 107 6 107 6 87 -8 c 2,19,-1
 64 -25 l 2,20,21
 61 -27 61 -27 43 -36 c 2,22,-1
 14 -52 l 1,23,-1
 37 -28 l 2,24,25
 53 -13 53 -13 68 31 c 0,26,27
 70 38 70 38 70 41 c 2,28,-1
 69 46 l 1,29,-1
 69 45 l 2,8,-1
EndSplineSet
EndChar

StartChar: less
Encoding: 60 60 31
Width: 521
Flags: W
HStem: 136 460<446 451>
VStem: 6 445<374 596>
LayerCount: 2
Fore
SplineSet
483 604.082 m 1,0,-1
 483 512.896 l 1,1,-1
 195.896 370.814 l 1,2,-1
 478 218.987 l 1,3,-1
 478 127.611 l 1,4,-1
 22.1592 374.179 l 1,5,-1
 483 604.082 l 1,0,-1
EndSplineSet
EndChar

StartChar: equal
Encoding: 61 61 32
Width: 647
Flags: W
HStem: 200 88<114 556> 438 88<112 552>
LayerCount: 2
Fore
SplineSet
106 293 m 1,0,-1
 557 293 l 1,1,-1
 557 195 l 1,2,-1
 107 195 l 1,3,-1
 106 293 l 1,0,-1
108 531 m 1,4,-1
 557 531 l 1,5,-1
 557 433 l 1,6,-1
 107 433 l 1,7,-1
 108 531 l 1,4,-1
EndSplineSet
EndChar

StartChar: greater
Encoding: 62 62 33
Width: 520
Flags: W
HStem: 136 460<42 47>
VStem: 42 445<374 596>
LayerCount: 2
Fore
SplineSet
37 604.082 m 1,0,-1
 497.841 374.179 l 1,1,-1
 42 127.611 l 1,2,-1
 42 218.987 l 1,3,-1
 324.104 370.814 l 1,4,-1
 37 512.896 l 1,5,-1
 37 604.082 l 1,0,-1
EndSplineSet
EndChar

StartChar: question
Encoding: 63 63 34
Width: 401
Flags: W
HStem: 0 21G<138.665 153.335> 672 77<112.027 244.471>
VStem: 103 88<220 307.205> 278 82<528.317 639.071>
LayerCount: 2
Fore
SplineSet
1.80675 679.558 m 1,0,1
 68.1433 754 68.1433 754 176 754 c 0,2,3
 256.99 754 256.99 754 310.995 702.009 c 128,-1,4
 365 650.017 365 650.017 365 568 c 0,5,6
 365 524.792 365 524.792 347.089 489.962 c 128,-1,7
 329.178 455.132 329.178 455.132 286.617 410.548 c 2,8,-1
 244.617 366.548 l 2,9,10
 209.001 329.229 209.001 329.229 202.501 308.743 c 128,-1,11
 196 288.257 196 288.257 196 237 c 2,12,-1
 193.446 215 l 1,13,-1
 98 215 l 1,14,-1
 98 248 l 2,15,16
 98 307.167 98 307.167 113.59 339.609 c 128,-1,17
 129.18 372.051 129.18 372.051 169.329 415 c 2,18,-1
 212.327 460.393 l 2,19,20
 215.979 464.307 215.979 464.307 227.142 474.851 c 0,21,22
 273 518.164 273 518.164 273 558 c 0,23,24
 273 667 273 667 163 667 c 0,25,26
 106.497 667 106.497 667 80.3059 636.257 c 2,27,-1
 49.1495 601.781 l 1,28,-1
 1.80675 679.558 l 1,0,1
83 59.5 m 128,-1,30
 83 89.2659 83 89.2659 102.559 106.383 c 128,-1,31
 122.118 123.5 122.118 123.5 146 123.5 c 128,-1,32
 169.78 123.5 169.78 123.5 189.39 107.436 c 128,-1,33
 209 91.3726 209 91.3726 209 61 c 128,-1,34
 209 30.7977 209 30.7977 189.378 12.814 c 128,-1,35
 169.942 -5 169.942 -5 146 -5 c 128,-1,36
 122.096 -5 122.096 -5 102.548 12.3787 c 128,-1,29
 83 29.7575 83 29.7575 83 59.5 c 128,-1,30
EndSplineSet
EndChar

StartChar: at
Encoding: 64 64 35
Width: 905
Flags: W
HStem: 18 68<389.073 531.224> 197.5 66.5<418.39 482.601> 475.5 64<420.458 481.513> 638 72<406.929 525.315>
VStem: 98 77<306.784 449.671> 274 73<331.538 403.288> 535.5 63.5<315.003 407.032> 750 71<308.242 437.729>
LayerCount: 2
Fore
SplineSet
433 92 m 2,0,-1
 505 92 l 2,1,2
 534 92 534 92 567 104 c 128,-1,3
 600 116 600 116 617 127 c 2,4,-1
 647 146 l 1,5,-1
 703 89 l 1,6,-1
 650 57 l 2,7,8
 593 26 593 26 541.5 19.5 c 128,-1,9
 490 13 490 13 431 13 c 128,-1,10
 372 13 372 13 314 34 c 0,11,12
 212 71 212 71 152.5 160.5 c 128,-1,13
 93 250 93 250 93 350 c 0,14,15
 93 491 93 491 178 593 c 0,16,17
 224 648 224 648 304 681.5 c 128,-1,18
 384 715 384 715 461 715 c 128,-1,19
 538 715 538 715 607.5 693.5 c 128,-1,20
 677 672 677 672 725 630 c 128,-1,21
 773 588 773 588 799.5 518.5 c 128,-1,22
 826 449 826 449 826 381 c 128,-1,23
 826 313 826 313 812.5 278 c 128,-1,24
 799 243 799 243 756 205 c 128,-1,25
 713 167 713 167 645 167 c 0,26,27
 615 167 615 167 583.5 179 c 128,-1,28
 552 191 552 191 535 218 c 1,29,30
 500 192 500 192 454.5 192 c 128,-1,31
 409 192 409 192 368 207 c 128,-1,32
 327 222 327 222 298 263.5 c 128,-1,33
 269 305 269 305 269 357 c 0,34,35
 269 497 269 497 382 534 c 0,36,37
 456 558 456 558 513 529 c 0,38,39
 524 524 524 524 531 518 c 1,40,-1
 531 540 l 1,41,-1
 614 540 l 1,42,-1
 614 467 l 2,43,44
 614 426 614 426 609 403.5 c 128,-1,45
 604 381 604 381 604 347.5 c 128,-1,46
 604 314 604 314 610 278 c 1,47,48
 620 248 620 248 665 248 c 0,49,50
 691 248 691 248 712 269 c 128,-1,51
 733 290 733 290 739 305 c 128,-1,52
 745 320 745 320 745 367 c 0,53,54
 745 493 745 493 667 567 c 0,55,56
 633 599 633 599 577 616 c 128,-1,57
 521 633 521 633 460 633 c 128,-1,58
 399 633 399 633 335 607.5 c 128,-1,59
 271 582 271 582 238 539 c 0,60,61
 180 464 180 464 180 350 c 0,62,63
 180 267 180 267 247 184 c 0,64,65
 283 141 283 141 334.5 116.5 c 128,-1,66
 386 92 386 92 433 92 c 2,0,-1
456 470 m 0,67,68
 396 470 396 470 368 426 c 0,69,70
 352 401 352 401 352 367.5 c 128,-1,71
 352 334 352 334 368 310 c 0,72,73
 394 269 394 269 456 269 c 0,74,75
 480 269 480 269 503 286.5 c 128,-1,76
 526 304 526 304 528 322 c 128,-1,77
 530 340 530 340 529.5 369 c 128,-1,78
 529 398 529 398 529 408 c 1,79,80
 521 436 521 436 500.5 453 c 128,-1,81
 480 470 480 470 456 470 c 0,67,68
EndSplineSet
EndChar

StartChar: A
Encoding: 65 65 36
Width: 674
Flags: W
HStem: 175 91<233 434>
LayerCount: 2
Fore
SplineSet
660 -3 m 1,0,-1
 571 -44 l 1,1,-1
 474 170 l 1,2,-1
 195 170 l 1,3,-1
 101 -44 l 1,4,-1
 14 -3 l 1,5,-1
 329 744 l 1,6,-1
 660 -3 l 1,0,-1
431 271 m 1,7,-1
 330 508 l 1,8,-1
 235 271 l 1,9,-1
 431 271 l 1,7,-1
EndSplineSet
EndChar

StartChar: B
Encoding: 66 66 37
Width: 517
Flags: W
HStem: 19.1487 77.52<109.751 375.007> 328.26 88.179<109.751 298.028> 617.991 67.83<109.751 247.491 247.491 270.211 274.471 295.866>
VStem: -13.7894 123.54<96.6686 328.26 416.439 618.96> 459.071 134.19<158.114 256.099>
LayerCount: 2
Fore
SplineSet
414.689 527.551 m 0,0,1
 414.689 387.236 414.689 387.236 349.894 387.236 c 0,2,3
 473.299 387.236 473.299 387.236 473.299 195.672 c 0,4,5
 473.299 111.021 473.299 111.021 420.866 53.5769 c 0,6,7
 368.028 -4.31076 368.028 -4.31076 280.625 -4.76172 c 0,8,9
 234.442 -5 234.442 -5 35.8887 -5 c 1,10,-1
 35.8887 693 l 1,11,-1
 243.236 693 l 1,12,13
 331.435 693 331.435 693 373.668 643.112 c 0,14,15
 414.689 594.656 414.689 594.656 414.689 527.551 c 0,0,1
133.267 611.396 m 1,16,-1
 133.267 424.363 l 1,17,-1
 246.1 424.363 l 0,18,19
 320 424.363 320 424.363 320 524.17 c 0,20,21
 320 612.29 320 612.29 241.494 611.687 c 0,22,23
 203.554 611.396 203.554 611.396 133.267 611.396 c 1,16,-1
133.267 316.318 m 1,24,-1
 133.267 84.9014 l 1,25,-1
 286.86 84.9014 l 0,26,27
 370.655 84.9014 370.655 84.9014 370.655 195.429 c 0,28,29
 370.655 316.318 370.655 316.318 259.028 316.318 c 1,30,-1
 133.267 316.318 l 1,24,-1
EndSplineSet
EndChar

StartChar: C
Encoding: 67 67 38
Width: 620
Flags: W
HStem: -17.59 85.45<282.964 474.709> 628.75 85.09<282.145 463.65>
VStem: 8.34003 96.63<263.646 435.454>
LayerCount: 2
Fore
SplineSet
620 82 m 1,0,1
 516 -23 516 -23 380 -23 c 0,2,3
 269 -23 269 -23 185 27 c 128,-1,4
 101 77 101 77 52 163 c 128,-1,5
 3 249 3 249 3 349 c 1,6,-1
 3 350 l 1,7,8
 3 450 3 450 46.5 533 c 128,-1,9
 90 616 90 616 177.5 667.5 c 128,-1,10
 265 719 265 719 382 719 c 1,11,-1
 383 719 l 1,12,13
 510 719 510 719 611 627 c 1,14,-1
 543 557 l 1,15,16
 491 624 491 624 379.5 624 c 128,-1,17
 268 624 268 624 189 543 c 128,-1,18
 110 462 110 462 110 348 c 128,-1,19
 110 234 110 234 188.5 153.5 c 128,-1,20
 267 73 267 73 379.5 73 c 128,-1,21
 492 73 492 73 556 158 c 1,22,-1
 620 82 l 1,0,1
EndSplineSet
EndChar

StartChar: D
Encoding: 68 68 39
Width: 589
Flags: W
HStem: 0 83.66<83.8625 431.548> 610.34 77.66<82.2645 425.555>
VStem: 39 88.64<83.66 610.34> 451.36 92.64<123.352 576.311>
LayerCount: 2
Fore
SplineSet
288.01 693 m 0,0,1
 547 693 547 693 547 354 c 0,2,3
 549 354 549 354 549 353 c 0,4,5
 549 -5 549 -5 285 -5 c 2,6,-1
 34 -5 l 1,7,-1
 34 696 l 1,8,-1
 39.0649 696 l 2,9,10
 41.9448 693 41.9448 693 288.01 693 c 0,0,1
279.094 605.34 m 0,11,12
 201.302 605.34 201.302 605.34 132.64 605.426 c 1,13,-1
 132.64 88.4668 l 1,14,15
 153.967 88.6592 153.967 88.6592 279.027 88.6592 c 0,16,17
 446 88.6592 446 88.6592 446 347.17 c 0,18,19
 446 605.34 446 605.34 279.094 605.34 c 0,11,12
EndSplineSet
EndChar

StartChar: E
Encoding: 69 69 40
Width: 483
Flags: W
HStem: 0 82<146 429> 329 83<146 342> 608 85<146 420>
VStem: 54 92<82 329 412 608>
LayerCount: 2
Fore
SplineSet
49 698 m 1,0,-1
 425 698 l 1,1,-1
 425 603 l 1,2,-1
 151 603 l 1,3,-1
 151 415 l 1,4,-1
 347 415 l 1,5,-1
 347 324 l 1,6,-1
 151 324 l 1,7,-1
 151 87 l 1,8,-1
 434 87 l 1,9,-1
 434 -5 l 1,10,-1
 49 -5 l 1,11,-1
 49 698 l 1,0,-1
EndSplineSet
EndChar

StartChar: F
Encoding: 70 70 41
Width: 469
Flags: W
HStem: 0 21G<58 151> 329 83<151 346> 609 82<151 411>
VStem: 58 93<0 329 412 609>
LayerCount: 2
Fore
SplineSet
53 696 m 1,0,-1
 416 696 l 1,1,-1
 416 604 l 1,2,-1
 156 604 l 1,3,-1
 156 415 l 1,4,-1
 351 415 l 1,5,-1
 351 324 l 1,6,-1
 156 324 l 1,7,-1
 156 -5 l 1,8,-1
 53 -5 l 1,9,-1
 53 696 l 1,0,-1
EndSplineSet
EndChar

StartChar: G
Encoding: 71 71 42
Width: 704
Flags: W
HStem: -12.4601 88.9601<346.932 563.841> 274.5 88.72<526.232 717.904> 628 86.62<332.85 609.565>
VStem: -49.5774 127.203<288.743 445.467> 717.947 131.293<135.05 274.5>
LayerCount: 2
Fore
SplineSet
568.125 566.394 m 1,0,1
 511.732 623.501 511.732 623.501 398.489 623.501 c 128,-1,2
 285.246 623.501 285.246 623.501 203.994 538.871 c 128,-1,3
 122.741 454.24 122.741 454.24 122.741 348.259 c 0,4,5
 122.741 222.617 122.741 222.617 204.121 141.443 c 0,6,7
 264.56 81.1582 264.56 81.1582 364.775 81.1582 c 0,8,9
 506.027 81.1582 506.027 81.1582 564.947 137.962 c 1,10,-1
 564.947 270.001 l 1,11,-1
 428.898 270.001 l 1,12,-1
 428.898 366.295 l 1,13,-1
 671.795 366.295 l 1,14,-1
 671.795 114.152 l 1,15,16
 576.551 -17.9795 576.551 -17.9795 368.521 -17.9795 c 0,17,18
 231.053 -17.9795 231.053 -17.9795 126.909 79.4985 c 128,-1,19
 22.7646 176.977 22.7646 176.977 22.7646 350 c 0,20,21
 22.7646 502.312 22.7646 502.312 141.876 610.966 c 128,-1,22
 260.988 719.62 260.988 719.62 389.498 719.62 c 2,23,-1
 390.842 719.62 l 2,24,25
 540.803 719.62 540.803 719.62 630.966 633.408 c 1,26,-1
 568.125 566.394 l 1,0,1
EndSplineSet
EndChar

StartChar: H
Encoding: 72 72 43
Width: 630
Flags: W
HStem: 0 21G<58 151 481 572> 311 83<151 481> 676 20G<481 572>
VStem: 58 93<0 311 394 690> 481 91<0 311 394 696>
LayerCount: 2
Fore
SplineSet
476 701 m 1,0,-1
 577 701 l 1,1,-1
 577 -5 l 1,2,-1
 476 -5 l 1,3,-1
 476 306 l 1,4,-1
 156 306 l 1,5,-1
 156 -5 l 1,6,-1
 53 -5 l 1,7,-1
 53 695 l 1,8,-1
 155 695 l 1,9,-1
 155 399 l 1,10,-1
 476 399 l 1,11,-1
 476 701 l 1,0,-1
EndSplineSet
EndChar

StartChar: I
Encoding: 73 73 44
Width: 207
Flags: W
HStem: 0 21G<59 148> 676 20G<58 148>
VStem: 58 90<0 696>
LayerCount: 2
Fore
SplineSet
103.993 701 m 1,0,-1
 153 701 l 1,1,-1
 153 -5 l 1,2,-1
 53.0254 -5 l 1,3,-1
 53.0254 701 l 1,4,-1
 103.993 701 l 1,0,-1
EndSplineSet
EndChar

StartChar: J
Encoding: 74 74 45
Width: 396
Flags: W
HStem: 680 20G<273 364>
VStem: 273 91<166.755 700>
LayerCount: 2
Fore
SplineSet
61.3288 79.6342 m 1,0,1
 96.4818 49.5023 96.4818 49.5023 136.557 49.5023 c 0,2,3
 268 49.5023 268 49.5023 268 228 c 2,4,-1
 268 705 l 1,5,-1
 369 705 l 1,6,-1
 369 222 l 2,7,8
 369 66.304 369 66.304 293.605 6.58068 c 0,9,10
 225.739 -47.1786 225.739 -47.1786 145.822 -47.1786 c 0,11,12
 74.9705 -47.1786 74.9705 -47.1786 15.4125 -8.83864 c 1,13,-1
 61.3288 79.6342 l 1,0,1
EndSplineSet
EndChar

StartChar: K
Encoding: 75 75 46
Width: 636
Flags: W
HStem: 0 21G<49 142 472 587> 666 20G<49 142 414 527>
VStem: 49 93<0 358 361 686>
LayerCount: 2
Fore
SplineSet
411.665 691 m 1,0,-1
 537.878 691 l 1,1,-1
 255.709 362.141 l 1,2,-1
 598.509 -5 l 1,3,-1
 469.809 -5 l 1,4,-1
 147 345.199 l 1,5,-1
 147 -5 l 1,6,-1
 44 -5 l 1,7,-1
 44 691 l 1,8,-1
 147 691 l 1,9,-1
 147 374.765 l 1,10,-1
 411.665 691 l 1,0,-1
EndSplineSet
EndChar

StartChar: L
Encoding: 76 76 47
Width: 474
Flags: W
HStem: 0 85<142 425>
VStem: 49 93<85 690>
LayerCount: 2
Fore
SplineSet
147 90 m 1,0,-1
 430 90 l 1,1,-1
 430 -5 l 1,2,-1
 44 -5 l 1,3,-1
 44 696 l 1,4,-1
 46 695 l 1,5,-1
 147 695 l 1,6,-1
 147 90 l 1,0,-1
EndSplineSet
EndChar

StartChar: M
Encoding: 77 77 48
Width: 734
Flags: W
VStem: 64 98<0 136.875> 572 97<-1 108.75>
LayerCount: 2
Fore
SplineSet
368.993 345.45 m 1,0,-1
 658.694 740.867 l 1,1,-1
 674.1 -5.79394 l 1,2,-1
 567.135 -10.2048 l 1,3,-1
 555.395 434.968 l 1,4,-1
 369.05 174.476 l 1,5,-1
 175.708 438.125 l 1,6,-1
 166.898 -9.2041 l 1,7,-1
 58.8937 -4.79574 l 1,8,-1
 75.3232 744.8 l 1,9,-1
 368.993 345.45 l 1,0,-1
EndSplineSet
EndChar

StartChar: N
Encoding: 78 78 49
Width: 646
Flags: W
HStem: 676 20G<500 588>
VStem: 58 87<3 467> 500 88<204 696>
LayerCount: 2
Fore
SplineSet
150 453.916 m 1,0,-1
 150 0 l 1,1,-1
 53 0 l 1,2,-1
 53 713.126 l 1,3,-1
 495 217.126 l 1,4,-1
 495 701 l 1,5,-1
 593 701 l 1,6,-1
 593 -41.0845 l 1,7,-1
 150 453.916 l 1,0,-1
EndSplineSet
EndChar

StartChar: O
Encoding: 79 79 50
Width: 752
Flags: W
HStem: -10.5 89<318.562 422.633> 619.5 85<303.459 415.905>
VStem: 22.5 98<295.901 408.131> 628 102<296.976 403.903>
LayerCount: 2
Fore
SplineSet
605.699 448.447 m 128,-1,1
 588.415 496.175 588.415 496.175 556.93 533.474 c 128,-1,2
 525.446 570.774 525.446 570.774 472.967 592.637 c 128,-1,3
 420.489 614.5 420.489 614.5 359.05 614.5 c 128,-1,4
 297.777 614.5 297.777 614.5 252.886 591.808 c 128,-1,5
 208.004 569.12 208.004 569.12 180.92 531.892 c 0,6,7
 125.5 455.715 125.5 455.715 125.5 349 c 0,8,9
 125.5 299.304 125.5 299.304 142.574 250.996 c 128,-1,10
 159.652 202.678 159.652 202.678 188.732 165.84 c 128,-1,11
 217.813 129.003 217.813 129.003 264.77 106.25 c 128,-1,12
 311.72 83.5 311.72 83.5 370.51 83.5 c 128,-1,13
 429.36 83.5 429.36 83.5 478.857 106.311 c 128,-1,14
 528.311 129.102 528.311 129.102 558.831 166.406 c 128,-1,15
 589.351 203.71 589.351 203.71 606.169 251.965 c 128,-1,16
 623 300.261 623 300.261 623 350.5 c 128,-1,0
 623 400.673 623 400.673 605.699 448.447 c 128,-1,1
642.634 594.953 m 128,-1,18
 687.561 543.9 687.561 543.9 711.299 478.557 c 128,-1,19
 735 413.318 735 413.318 735 345.5 c 128,-1,20
 735 277.646 735 277.646 710.773 212.868 c 128,-1,21
 686.54 148.074 686.54 148.074 642.032 97.4311 c 128,-1,22
 597.524 46.7881 597.524 46.7881 526.041 15.6441 c 128,-1,23
 454.558 -15.5 454.558 -15.5 368.99 -15.5 c 128,-1,24
 283.358 -15.5 283.358 -15.5 214.844 15.6908 c 128,-1,25
 146.33 46.8817 146.33 46.8817 104.337 98.0869 c 0,26,27
 17.5 203.975 17.5 203.975 17.5 347.268 c 128,-1,28
 17.5 490.561 17.5 490.561 102.675 595.717 c 0,29,30
 144.273 647.075 144.273 647.075 211.329 678.303 c 128,-1,31
 278.321 709.5 278.321 709.5 364.952 709.5 c 128,-1,32
 451.543 709.5 451.543 709.5 524.479 677.877 c 128,-1,17
 597.531 646.204 597.531 646.204 642.634 594.953 c 128,-1,18
EndSplineSet
EndChar

StartChar: P
Encoding: 80 80 51
Width: 506
Flags: W
HStem: 1 21G<63 144> 304 83.75<144 288.063> 618.25 73.75<143.92 294.992>
VStem: 63 81<1 304 387.75 618.25> 362.58 77.92<465.806 542.801>
LayerCount: 2
Fore
SplineSet
246 697 m 2,0,1
 309.401 697 309.401 697 356.6 668.271 c 128,-1,2
 403.887 639.488 403.887 639.488 424.693 595.3 c 128,-1,3
 445.5 551.113 445.5 551.113 445.5 499 c 128,-1,4
 445.5 446.82 445.5 446.82 423.16 402.14 c 128,-1,5
 400.82 357.459 400.82 357.459 352.072 328.212 c 128,-1,6
 303.382 299 303.382 299 236 299 c 2,7,-1
 149 299 l 1,8,-1
 149 -4 l 1,9,-1
 58 -4 l 1,10,-1
 58 697 l 1,11,-1
 246 697 l 2,0,1
148.92 613.25 m 1,12,-1
 148.92 392.75 l 1,13,-1
 255.05 392.75 l 2,14,15
 286.419 392.75 286.419 392.75 309.952 408.928 c 0,16,17
 357.58 441.673 357.58 441.673 357.58 501.97 c 0,18,19
 357.58 566.932 357.58 566.932 316.429 596.709 c 0,20,21
 293.571 613.25 293.571 613.25 261.23 613.25 c 2,22,-1
 148.92 613.25 l 1,12,-1
EndSplineSet
EndChar

StartChar: Q
Encoding: 81 81 52
Width: 763
Flags: W
HStem: -10.26 87.82<288.744 439.978> 615.67 87.78<287.826 456.007>
VStem: 13.65 88.11<262.808 430.339> 642.02 88.16<269.256 430.339>
LayerCount: 2
Fore
SplineSet
686.437 527.993 m 128,-1,1
 735.18 444.578 735.18 444.578 735.18 346.58 c 0,2,3
 735.18 219.484 735.18 219.484 655.263 120.655 c 1,4,-1
 721.681 47.2202 l 1,5,-1
 634.691 -24.4369 l 1,6,-1
 573.345 45.7601 l 1,7,8
 482.281 -15.26 482.281 -15.26 377.906 -15.26 c 128,-1,9
 273.531 -15.26 273.531 -15.26 189.812 33.2743 c 128,-1,10
 106.102 81.8035 106.102 81.8035 57.376 165.189 c 128,-1,11
 8.65 248.575 8.65 248.575 8.65 346.58 c 128,-1,12
 8.65 444.595 8.65 444.595 57.376 527.981 c 128,-1,13
 106.102 611.366 106.102 611.366 189.812 659.905 c 128,-1,14
 273.531 708.45 273.531 708.45 371.91 708.45 c 128,-1,15
 470.291 708.45 470.291 708.45 554.018 659.906 c 128,-1,0
 637.709 611.382 637.709 611.382 686.437 527.993 c 128,-1,1
371.91 610.67 m 128,-1,17
 261.803 610.67 261.803 610.67 184.282 533.449 c 128,-1,18
 106.76 456.228 106.76 456.228 106.76 346.58 c 128,-1,19
 106.76 236.93 106.76 236.93 184.275 159.745 c 128,-1,20
 261.789 82.56 261.789 82.56 371.91 82.56 c 0,21,22
 446.026 82.56 446.026 82.56 508.433 120.005 c 1,23,-1
 435.975 201.931 l 1,24,-1
 520.948 270.336 l 1,25,-1
 588.719 194.322 l 1,26,27
 637.02 262.094 637.02 262.094 637.02 346.546 c 0,28,29
 637.02 456.239 637.02 456.239 559.526 533.454 c 128,-1,16
 482.032 610.67 482.032 610.67 371.91 610.67 c 128,-1,17
EndSplineSet
EndChar

StartChar: R
Encoding: 82 82 53
Width: 489
Flags: W
HStem: 0 21G<52 141 423 524> 313 81<141 279.352> 618 83<141 287.817>
VStem: 49 92<394 618> 52 89<0 313>
LayerCount: 2
Fore
SplineSet
256 706 m 2,0,1
 309.134 706 309.134 706 351.148 686.015 c 0,2,3
 429.108 648.93 429.108 648.93 450.371 557.128 c 0,4,5
 456.139 532.226 456.139 532.226 456.139 511.682 c 128,-1,6
 456.139 491.137 456.139 491.137 451.458 462.67 c 128,-1,7
 446.776 434.203 446.776 434.203 423.815 397.762 c 128,-1,8
 400.853 361.32 400.853 361.32 366.442 339.141 c 1,9,-1
 531.953 -5 l 1,10,-1
 419.856 -5 l 1,11,-1
 268.983 308.736 l 1,12,13
 258.945 308 258.945 308 246 308 c 1,14,-1
 146 308 l 1,15,-1
 146 -5 l 1,16,-1
 43.9786 -5 l 1,17,-1
 43.9786 706 l 1,18,-1
 256 706 l 2,0,1
146 613 m 1,19,-1
 146 399 l 1,20,-1
 250 399 l 1,21,22
 279.447 399 279.447 399 302.286 415 c 0,23,24
 349 447.725 349 447.725 349 505 c 0,25,26
 349 567.716 349 567.716 308.57 596.948 c 0,27,28
 286.37 613 286.37 613 255 613 c 2,29,-1
 146 613 l 1,19,-1
EndSplineSet
EndChar

StartChar: S
Encoding: 83 83 54
Width: 528
Flags: W
HStem: 626 79<216.8 317.329>
VStem: 65.5608 94.4392<530.349 585.849>
LayerCount: 2
Fore
SplineSet
379.304 585.066 m 1,0,1
 329.889 621 329.889 621 248.024 621 c 0,2,3
 214.189 621 214.189 621 191.469 596.386 c 0,4,5
 164.438 567.103 164.438 567.103 164.438 539.113 c 128,-1,6
 164.438 511.123 164.438 511.123 186.257 482.169 c 128,-1,7
 208.075 453.216 208.075 453.216 259.661 434.716 c 2,8,-1
 340.658 406.717 l 2,9,10
 403.993 384.089 403.993 384.089 446.777 334.777 c 0,11,12
 497 276.885 497 276.885 497 202.5 c 0,13,14
 497 160.873 497 160.873 476.514 117.85 c 0,15,16
 415.8 -9.65804 415.8 -9.65804 250.519 -9.65804 c 0,17,18
 182.224 -9.65804 182.224 -9.65804 117.498 10.731 c 0,19,20
 90.1987 19.3304 90.1987 19.3304 78.9323 24.4476 c 2,21,-1
 30.4137 49.3002 l 1,22,-1
 50.2589 156.244 l 1,23,24
 185.001 93 185.001 93 257.5 93 c 0,25,26
 289.84 93 289.84 93 322.688 109.181 c 128,-1,27
 355.536 125.362 355.536 125.362 373.422 152.613 c 128,-1,28
 391.309 179.863 391.309 179.863 391.309 203.083 c 128,-1,29
 391.309 226.302 391.309 226.302 382.463 245.398 c 0,30,31
 362.953 287.518 362.953 287.518 310.246 307.324 c 0,32,33
 294.42 313.271 294.42 313.271 267.596 324.676 c 128,-1,34
 240.772 336.081 240.772 336.081 230.488 339.236 c 0,35,36
 165.702 359.111 165.702 359.111 125.233 394.079 c 0,37,38
 58.9853 451.323 58.9853 451.323 58.9853 530.077 c 0,39,40
 58.9853 586.331 58.9853 586.331 86.2936 626.109 c 128,-1,41
 113.602 665.887 113.602 665.887 157.208 687.994 c 128,-1,42
 200.813 710.101 200.813 710.101 258.211 710.101 c 128,-1,43
 315.61 710.101 315.61 710.101 352.925 701 c 0,44,45
 392.178 691.427 392.178 691.427 430.789 660.054 c 1,46,-1
 379.304 585.066 l 1,0,1
EndSplineSet
EndChar

StartChar: T
Encoding: 84 84 55
Width: 490
Flags: W
HStem: 0 21G<198 203 198 288> 609 77<16 203 288 474>
VStem: 203 85<0 609>
LayerCount: 2
Fore
SplineSet
11 691 m 1,0,-1
 479 691 l 1,1,-1
 479 604 l 1,2,-1
 293 604 l 1,3,-1
 293 -5 l 1,4,-1
 198 -5 l 1,5,-1
 198 604 l 1,6,-1
 11 604 l 1,7,-1
 11 691 l 1,0,-1
EndSplineSet
EndChar

StartChar: U
Encoding: 85 85 56
Width: 592
Flags: W
HStem: 0 88<258.078 327.825>
VStem: 52 93<216.811 683> 444 91<218.806 682>
LayerCount: 2
Fore
SplineSet
150 266 m 2,0,1
 150 224.926 150 224.926 163.165 190.8 c 128,-1,2
 176.316 156.709 176.316 156.709 196.118 135.951 c 128,-1,3
 215.932 115.181 215.932 115.181 241.491 104.087 c 128,-1,4
 267.031 93 267.031 93 293.475 93 c 0,5,6
 348.441 93 348.441 93 393.221 138.835 c 128,-1,7
 438 184.67 438 184.67 438 270 c 2,8,-1
 438 291.18 l 1,9,-1
 439 289.18 l 1,10,-1
 439 687 l 1,11,-1
 540 687 l 1,12,-1
 540 265 l 2,13,14
 540 71.0283 540 71.0283 386.284 12.329 c 0,15,16
 340.904 -5 340.904 -5 293.5 -5 c 128,-1,17
 245.958 -5 245.958 -5 201.018 14.4098 c 0,18,19
 102.478 56.9687 102.478 56.9687 66.8297 150.215 c 0,20,21
 47 202.083 47 202.083 47 264 c 2,22,-1
 47 690.109 l 1,23,-1
 150 690.109 l 1,24,-1
 150 266 l 2,0,1
EndSplineSet
EndChar

StartChar: V
Encoding: 86 86 57
Width: 675
Flags: W
LayerCount: 2
Fore
SplineSet
579.621 735.812 m 1,0,-1
 659.492 695.315 l 1,1,-1
 329.891 -49.6037 l 1,2,-1
 15.5114 695.517 l 1,3,-1
 100.583 734.694 l 1,4,-1
 331.166 193.369 l 1,5,-1
 579.621 735.812 l 1,0,-1
EndSplineSet
EndChar

StartChar: W
Encoding: 87 87 58
Width: 842
Flags: W
LayerCount: 2
Fore
SplineSet
436.899 357.033 m 1,0,-1
 269.475 -34.9589 l 1,1,-1
 20.5739 695.356 l 1,2,-1
 117.256 723.138 l 1,3,-1
 274.66 241.087 l 1,4,-1
 414.719 564 l 1,5,-1
 453.287 564 l 1,6,-1
 592.463 241.85 l 1,7,-1
 757.884 724.329 l 1,8,-1
 844.348 695.134 l 1,9,-1
 596.428 -33.2613 l 1,10,-1
 436.899 357.033 l 1,0,-1
EndSplineSet
EndChar

StartChar: X
Encoding: 88 88 59
Width: 694
Flags: W
LayerCount: 2
Fore
SplineSet
676.127 25.3467 m 1,0,-1
 593.907 -46.8193 l 1,1,-1
 347.025 301.024 l 1,2,-1
 110.54 -33.7041 l 1,3,-1
 21.8799 20 l 1,4,-1
 285.921 389.928 l 1,5,-1
 67.9219 677.338 l 1,6,-1
 166.429 741.915 l 1,7,-1
 349.06 484.991 l 1,8,-1
 533.912 737.299 l 1,9,-1
 613.672 675.044 l 1,10,-1
 409.992 395.011 l 1,11,-1
 676.127 25.3467 l 1,0,-1
EndSplineSet
EndChar

StartChar: Y
Encoding: 89 89 60
Width: 616
Flags: W
VStem: 255 99<3 330>
LayerCount: 2
Fore
SplineSet
8.89693 693.665 m 1,0,-1
 93.5567 742.679 l 1,1,-1
 304 427.014 l 1,2,-1
 514.506 742.773 l 1,3,-1
 605.005 692.579 l 1,4,-1
 359 332.511 l 1,5,-1
 359 0 l 1,6,-1
 250 0 l 1,7,-1
 250 330 l 1,8,-1
 8.89693 693.665 l 1,0,-1
EndSplineSet
EndChar

StartChar: Z
Encoding: 90 90 61
Width: 617
Flags: W
HStem: 0 88<210 594> 602 80<131 446>
LayerCount: 2
Fore
SplineSet
127.368 687 m 1,0,-1
 610.277 687 l 1,1,-1
 219.277 93 l 1,2,-1
 599 93 l 1,3,-1
 599 -5 l 1,4,-1
 29.5841 -5 l 1,5,-1
 436.584 597 l 1,6,-1
 98.1176 597 l 1,7,-1
 127.368 687 l 1,0,-1
EndSplineSet
EndChar

StartChar: bracketleft
Encoding: 91 91 62
Width: 327
Flags: W
HStem: 0 80<142 286> 622 80<142 284>
VStem: 62 80<80 622> 62 224<0 80 622 702>
LayerCount: 2
Fore
SplineSet
57 -5 m 1,0,-1
 57 707 l 1,1,-1
 289 707 l 1,2,-1
 289 617 l 1,3,-1
 147 617 l 1,4,-1
 147 85 l 1,5,-1
 291 85 l 1,6,-1
 291 -5 l 1,7,-1
 57 -5 l 1,0,-1
EndSplineSet
EndChar

StartChar: backslash
Encoding: 92 92 63
Width: 382
Flags: W
HStem: 0 21G<286 366> 682 20G<19 99>
VStem: 19 347<0 702>
LayerCount: 2
Fore
SplineSet
282.552 -5 m 1,0,-1
 11.7489 707 l 1,1,-1
 102.448 707 l 1,2,-1
 373.251 -5 l 1,3,-1
 282.552 -5 l 1,0,-1
EndSplineSet
EndChar

StartChar: bracketright
Encoding: 93 93 64
Width: 327
Flags: W
HStem: 0 80<62 206> 622 80<64 206>
VStem: 62 224<0 80 622 702> 206 80<80 622>
LayerCount: 2
Fore
SplineSet
291 -5 m 1,0,-1
 57 -5 l 1,1,-1
 57 85 l 1,2,-1
 201 85 l 1,3,-1
 201 617 l 1,4,-1
 59 617 l 1,5,-1
 59 707 l 1,6,-1
 291 707 l 1,7,-1
 291 -5 l 1,0,-1
EndSplineSet
EndChar

StartChar: asciicircum
Encoding: 94 94 65
Width: 605
Flags: W
HStem: 530 204<309 448>
VStem: 157 291<530 530>
LayerCount: 2
Fore
SplineSet
457.457 525 m 1,0,-1
 370.427 525 l 1,1,-1
 307.823 612.645 l 1,2,-1
 239.441 525 l 1,3,-1
 147.039 525 l 1,4,-1
 309.182 742.613 l 1,5,-1
 457.457 525 l 1,0,-1
EndSplineSet
EndChar

StartChar: underscore
Encoding: 95 95 66
Width: 559
Flags: W
HStem: -82 82<48 511>
LayerCount: 2
Fore
SplineSet
516 5 m 1,0,-1
 516 -87 l 1,1,-1
 43 -87 l 1,2,-1
 43 5 l 1,3,-1
 516 5 l 1,0,-1
EndSplineSet
EndChar

StartChar: grave
Encoding: 193 96 67
Width: 1000
Flags: W
HStem: 791 194<461 551>
VStem: 399 202<838 912>
LayerCount: 2
Fore
SplineSet
460.787 992.473 m 1,0,-1
 608.092 837.804 l 1,1,-1
 551.272 787 l 1,2,-1
 391.848 911.303 l 1,3,-1
 460.787 992.473 l 1,0,-1
EndSplineSet
EndChar

StartChar: a
Encoding: 97 97 68
Width: 393
Flags: W
HStem: -24.9497 88.2108<113.12 246.633> 208.229 83.8008<113.099 255.294>
VStem: 18.4799 82.2406<71.2841 193.368>
LayerCount: 2
Fore
SplineSet
82.6301 390.801 m 1,0,1
 134.515 433.018 134.515 433.018 214.715 433.018 c 0,2,3
 248.19 433.018 248.19 433.018 281.378 421.245 c 0,4,5
 333.395 402.793 333.395 402.793 354.687 355.699 c 128,-1,6
 375.98 308.606 375.98 308.606 375.98 267.9 c 1,7,-1
 375.98 -5 l 1,8,-1
 278.5 -5 l 1,9,-1
 278.5 15.9545 l 1,10,11
 249.476 -15.0098 249.476 -15.0098 190.55 -15.0098 c 0,12,13
 108.347 -15.0098 108.347 -15.0098 62.6735 19.9483 c 128,-1,14
 17 54.9064 17 54.9064 17 127 c 0,15,16
 17 181.797 17 181.797 55.4644 228.566 c 0,17,18
 75.5095 252.939 75.5095 252.939 112.844 267.719 c 128,-1,19
 150.178 282.5 150.178 282.5 202.223 282.5 c 128,-1,20
 254.268 282.5 254.268 282.5 282.744 247.592 c 1,21,22
 282.744 301.412 282.744 301.412 267.177 317.777 c 0,23,24
 218.34 369.118 218.34 369.118 117.661 316.219 c 1,25,-1
 82.6301 390.801 l 1,0,1
283.441 133.875 m 5,26,27
 275.007 202.717 275.007 202.717 188.528 202.717 c 4,28,29
 144.669 202.717 144.669 202.717 122.745 183.772 c 132,-1,30
 100.82 164.828 100.82 164.828 100.82 130.635 c 4,31,32
 100.82 68.7734 100.82 68.7734 187.549 68.7734 c 132,-1,33
 274.275 68.7734 274.275 68.7734 283.441 133.875 c 5,26,27
EndSplineSet
EndChar

StartChar: b
Encoding: 98 98 69
Width: 520
Flags: W
HStem: -10.4 80.07<194.561 342.175> 342.74 76.66<173.696 342.968> 728 20G<44 137>
VStem: 44 92.77<0 36.39 366.97 748> 357.36 90.64<87.871 324.536>
LayerCount: 2
Fore
SplineSet
453 204.5 m 128,-1,1
 453 -15.4 453 -15.4 247.38 -15.4 c 0,2,3
 189.652 -15.4 189.652 -15.4 141.77 25.2103 c 1,4,-1
 141.77 -5 l 1,5,-1
 39 -5 l 1,6,-1
 39 753 l 1,7,-1
 142 753 l 1,8,-1
 142 384.609 l 1,9,10
 172.575 424.4 172.575 424.4 247.38 424.4 c 0,11,0
 453 424.4 453 424.4 453 204.5 c 128,-1,1
243.44 74.67 m 0,12,13
 352.36 74.67 352.36 74.67 352.36 206.205 c 128,-1,14
 352.36 337.74 352.36 337.74 249.42 337.74 c 0,15,16
 137.28 337.74 137.28 337.74 137.28 206.205 c 128,-1,17
 137.28 74.67 137.28 74.67 243.44 74.67 c 0,12,13
EndSplineSet
EndChar

StartChar: c
Encoding: 99 99 70
Width: 370
Flags: W
HStem: -10.25 84.7617<171.238 305.471> 354.599 82.7614<140.906 281.916>
VStem: 14.22 82.3435<69.2633 328.736>
LayerCount: 2
Fore
SplineSet
215.304 79.5117 m 0,0,1
 290.595 79.5117 290.595 79.5117 321.43 106.092 c 1,2,-1
 370.89 32.0781 l 1,3,-1
 352.142 15.3094 l 2,4,5
 331.444 -2.3902 331.444 -2.3902 313.699 -5.95741 c 0,6,7
 211.389 -26.525 211.389 -26.525 145.14 0 c 0,8,9
 62.4842 33.0934 62.4842 33.0934 28.021 112.688 c 0,10,11
 9.22 156.11 9.22 156.11 9.22 208.88 c 0,12,13
 9.22 310.136 9.22 310.136 66.6745 376.248 c 128,-1,14
 124.129 442.36 124.129 442.36 221.832 442.36 c 0,15,16
 322.471 442.36 322.471 442.36 373.772 388.511 c 1,17,-1
 321.47 313.854 l 1,18,19
 291.276 349.599 291.276 349.599 215.23 349.599 c 0,20,21
 171.255 349.599 171.255 349.599 136.409 310.311 c 128,-1,22
 101.563 271.023 101.563 271.023 101.563 205.723 c 0,23,24
 101.563 170.074 101.563 170.074 114.458 143.551 c 128,-1,25
 127.261 117.215 127.261 117.215 146.675 104.294 c 0,26,27
 183.909 79.5117 183.909 79.5117 215.304 79.5117 c 0,0,1
EndSplineSet
EndChar

StartChar: d
Encoding: 100 100 71
Width: 515
Flags: W
HStem: -9.51953 86.9433<101.521 348.575> 337.732 92.7876<101.809 353.326>
VStem: 38.6807 96.8535<36.5775 374.979> 355.529 102.471<-5 28.4062 398.965 753>
LayerCount: 2
Fore
SplineSet
38.6807 210.5 m 128,-1,1
 38.6807 430.52 38.6807 430.52 250.582 430.52 c 0,2,3
 329.616 430.52 329.616 430.52 355.529 398.965 c 1,4,-1
 355 753 l 1,5,-1
 458 753 l 1,6,-1
 458 -5 l 1,7,-1
 356 -5 l 1,8,-1
 356.479 28.4062 l 1,9,10
 324.729 -9.51953 324.729 -9.51953 245.243 -9.51953 c 0,11,0
 38.6807 -9.51953 38.6807 -9.51953 38.6807 210.5 c 128,-1,1
247.951 337.732 m 0,12,13
 135.534 337.732 135.534 337.732 135.534 213.578 c 0,14,15
 135.534 77.4238 135.534 77.4238 248.91 77.4238 c 0,16,17
 360.59 77.4238 360.59 77.4238 360.59 216.74 c 0,18,19
 360.59 337.732 360.59 337.732 247.951 337.732 c 0,12,13
EndSplineSet
EndChar

StartChar: e
Encoding: 101 101 72
Width: 409
Flags: W
HStem: -10.38 80.5402<176.611 273.57> 164.78 80.18<97.5996 327.72> 341.9 77.55<140.992 286.329>
VStem: 13.61 382.34<164.78 312.653 164.78 201.96>
LayerCount: 2
Fore
SplineSet
404.754 218.981 m 0,0,1
 404.754 190.631 404.754 190.631 400.333 159.78 c 1,2,-1
 102.239 159.78 l 1,3,4
 117.348 104.546 117.348 104.546 157.246 88.2494 c 0,5,6
 189.305 75.155 189.305 75.155 217.805 75.155 c 0,7,8
 277.616 75.155 277.616 75.155 313.006 112.84 c 1,9,-1
 375.1 59.5201 l 1,10,11
 321.131 -15.38 321.131 -15.38 213.95 -15.38 c 0,12,13
 128.966 -15.38 128.966 -15.38 87.2132 25.3584 c 128,-1,14
 45.4604 66.0967 45.4604 66.0967 27.0352 104.385 c 128,-1,15
 8.61 142.673 8.61 142.673 8.61 201.96 c 0,16,17
 8.61 295.862 8.61 295.862 65.947 360.156 c 128,-1,18
 123.284 424.45 123.284 424.45 210.928 424.45 c 128,-1,19
 298.573 424.45 298.573 424.45 362.058 352.42 c 0,20,21
 404.754 303.977 404.754 303.977 404.754 218.981 c 0,0,1
321.65 249.96 m 1,22,23
 303.184 336.9 303.184 336.9 216.86 336.9 c 0,24,25
 131.361 336.9 131.361 336.9 104.276 249.96 c 1,26,-1
 321.65 249.96 l 1,22,23
EndSplineSet
EndChar

StartChar: f
Encoding: 102 102 73
Width: 333
Flags: W
HStem: 0 21G<97 177> 344 80<47 97 179 245> 556 86<176.04 253>
VStem: 97 80<0 344> 101 78<424 539.06>
LayerCount: 2
Fore
SplineSet
96.0234 415 m 5,0,1
 96.0234 536.027 96.0234 536.027 141.317 591.513 c 128,-1,2
 186.611 647 186.611 647 240.682 647 c 0,3,4
 297.817 647 297.817 647 324.636 623.094 c 1,5,-1
 271.73 540.427 l 1,6,-1
 251.77 550.993 l 1,7,8
 212.88 550.993 212.88 550.993 198.451 522.479 c 128,-1,9
 184.021 493.964 184.021 493.964 184.021 415 c 5,10,-1
 250 415 l 5,11,-1
 250 315 l 5,12,-1
 182 315 l 5,13,-1
 182 -5 l 1,14,-1
 92 -5 l 1,15,-1
 92 315 l 5,16,-1
 42 315 l 5,17,-1
 42 415 l 5,18,-1
 96.0234 415 l 5,0,1
EndSplineSet
EndChar

StartChar: g
Encoding: 103 103 74
Width: 436
Flags: W
HStem: -205.02 83.02<182.782 267.325> 11 83<127.407 279.211> 333.92 86.08<127.894 261.671>
VStem: 29.4 84.6<110.271 316.555> 312 91<-68.13 55 108.671 318.101>
LayerCount: 2
Fore
SplineSet
221.072 328.943 m 0,0,1
 119.036 328.943 119.036 328.943 119.036 213.971 c 128,-1,2
 119.036 99 119.036 99 214 99 c 0,3,4
 307.039 99 307.039 99 307.039 199.718 c 0,5,6
 307.039 328.943 307.039 328.943 221.072 328.943 c 0,0,1
209.264 5.99522 m 0,7,8
 24.39 5.99522 24.39 5.99522 24.39 215.498 c 128,-1,9
 24.39 425 24.39 425 220.474 425 c 0,10,11
 265.002 425 265.002 425 304 374.55 c 1,12,-1
 304 408 l 1,13,-1
 408 408 l 1,14,-1
 408 0 l 2,15,16
 408 -104.551 408 -104.551 333.2 -167.842 c 0,17,18
 288.929 -207.214 288.929 -207.214 212.917 -206.214 c 0,19,20
 130.993 -206.214 130.993 -206.214 81.416 -176.28 c 2,21,-1
 24.4404 -141.88 l 1,22,-1
 64.6606 -66.5576 l 1,23,24
 154.282 -119.344 154.282 -119.344 213.076 -117.122 c 0,25,26
 307 -113.572 307 -113.572 307 -33.8421 c 1,27,-1
 307 38.6683 l 1,28,29
 278.798 5.99522 278.798 5.99522 209.264 5.99522 c 0,7,8
EndSplineSet
EndChar

StartChar: h
Encoding: 104 104 75
Width: 439
Flags: W
HStem: 0 21G<42.23 124.63 332.69 414.06> 339 86<198.116 266.469> 728 20G<42.23 126.69>
VStem: 42.23 82.4<0 262.655 368 748> 332.69 81.37<0 290.622>
LayerCount: 2
Fore
SplineSet
318.27 -5 m 1,0,-1
 318.27 247 l 4,1,2
 318.27 353 318.27 353 227.115 353 c 4,3,4
 134.93 353 134.93 353 134.93 247 c 6,5,-1
 134.93 -5 l 1,6,-1
 37.0801 -5 l 1,7,-1
 37.0801 753 l 1,8,-1
 136.99 753 l 1,9,-1
 136.99 399.991 l 5,10,11
 171.368 448.997 171.368 448.997 245.571 448.997 c 4,12,13
 339.255 448.997 339.255 448.997 376.657 389.713 c 132,-1,14
 414.06 330.428 414.06 330.428 414.06 277 c 6,15,-1
 414.06 -5 l 1,16,-1
 318.27 -5 l 1,0,-1
EndSplineSet
EndChar

StartChar: i
Encoding: 105 105 76
Width: 191
Flags: W
HStem: 0 21G<61 151> 402 20G<59 151>
VStem: 59 92<0 422>
LayerCount: 2
Fore
SplineSet
95.5127 477 m 128,-1,1
 74.168 477 74.168 477 56.084 492.341 c 128,-1,2
 38 507.682 38 507.682 38 534.009 c 128,-1,3
 38 560.336 38 560.336 56.0918 575.418 c 128,-1,4
 74.1836 590.5 74.1836 590.5 95.5 590.5 c 130,-1,5
 116.707 590.5 116.707 590.5 134.854 576.479 c 128,-1,6
 153 562.455 153 562.455 153 535.599 c 128,-1,7
 153 508.743 153 508.743 134.945 492.872 c 128,-1,0
 116.891 477 116.891 477 95.5127 477 c 128,-1,1
41.9766 427 m 1,8,-1
 144 427 l 1,9,-1
 144 -5 l 1,10,-1
 41.0234 -5 l 1,11,-1
 41.9766 427 l 1,8,-1
EndSplineSet
EndChar

StartChar: j
Encoding: 106 106 77
Width: 207
Flags: W
HStem: 402 20G<59 151>
VStem: 59 92<-116 422>
LayerCount: 2
Fore
SplineSet
109.513 477 m 128,-1,1
 88.168 477 88.168 477 70.084 492.341 c 128,-1,2
 52 507.682 52 507.682 52 534.009 c 128,-1,3
 52 560.336 52 560.336 70.0916 575.418 c 128,-1,4
 88.1833 590.5 88.1833 590.5 109.5 590.5 c 130,-1,5
 130.707 590.5 130.707 590.5 148.854 576.478 c 128,-1,6
 167 562.455 167 562.455 167 535.599 c 128,-1,7
 167 508.743 167 508.743 148.945 492.872 c 128,-1,0
 130.891 477 130.891 477 109.513 477 c 128,-1,1
54 427 m 1,8,-1
 156 427 l 1,9,-1
 156 -121 l 1,10,-1
 54 -121 l 1,11,-1
 54 427 l 1,8,-1
EndSplineSet
EndChar

StartChar: k
Encoding: 107 107 78
Width: 490
Flags: W
HStem: 0 21G<50 142 359 477> 404 20G<329 447> 728 20G<50 143>
VStem: 50 93<0 216 238 748>
LayerCount: 2
Fore
SplineSet
148 250.229 m 1,0,-1
 326.94 429 l 1,1,-1
 459.028 429 l 1,2,-1
 258.054 227.001 l 1,3,-1
 489.033 -5 l 1,4,-1
 356.938 -5 l 1,5,-1
 147 203.929 l 1,6,-1
 147 -5 l 1,7,-1
 45 -5 l 1,8,-1
 45 753 l 1,9,-1
 148 753 l 1,10,-1
 148 250.229 l 1,0,-1
EndSplineSet
EndChar

StartChar: l
Encoding: 108 108 79
Width: 194
Flags: W
HStem: 0 21G<54.89 134.1>
VStem: 54.89 79.21<0 782>
LayerCount: 2
Fore
SplineSet
94.0996 -6 m 1,0,-1
 43.8896 -6 l 1,1,-1
 43.8896 787 l 1,2,-1
 143.1 787 l 1,3,-1
 143.1 -6 l 1,4,-1
 94.0996 -6 l 1,0,-1
EndSplineSet
EndChar

StartChar: m
Encoding: 109 109 80
Width: 696
Flags: W
HStem: 0 21G<47.19 131.55> 335 84.67<440.055 501.805> 341.45 82.55<168 296.526>
VStem: 47.19 84.36<0 324.59 352 410> 308.3 77.36<1.52588e-05 265.661> 552.39 84.38<1.52588e-05 249.981>
LayerCount: 2
Fore
SplineSet
473.49 424.67 m 0,0,1
 641.77 424.67 641.77 424.67 641.77 223 c 1,2,-1
 641.77 -4.99998 l 1,3,-1
 544.39 -4.99998 l 1,4,-1
 544.39 215 l 2,5,6
 544.39 330 544.39 330 470.789 330 c 0,7,8
 474.368 330 474.368 330 470.789 330 c 0,9,10
 440.693 330 440.693 330 417.177 300.848 c 128,-1,11
 393.66 271.696 393.66 271.696 393.66 215.023 c 2,12,-1
 393.66 -5 l 1,13,-1
 300.3 -5 l 1,14,-1
 300.3 215 l 2,15,16
 300.3 336.45 300.3 336.45 219.93 336.45 c 128,-1,17
 139.55 336.45 139.55 336.45 139.55 215 c 2,18,-1
 139.55 -5 l 1,19,-1
 42.19 -5 l 1,20,-1
 42.19 415 l 1,21,-1
 141.56 415 l 1,22,-1
 141.56 375.722 l 1,23,24
 169.676 429 169.676 429 220 429 c 0,25,26
 329.914 429 329.914 429 351.252 370.713 c 1,27,28
 388.474 424.67 388.474 424.67 473.49 424.67 c 0,0,1
EndSplineSet
EndChar

StartChar: n
Encoding: 110 110 81
Width: 414
Flags: W
HStem: 0 21G<296.65 376.5> 337 90.3<139.165 285.359>
VStem: 33.14 79.7<-3.05176e-05 322.208> 296.65 79.85<0 300.02>
LayerCount: 2
Fore
SplineSet
286.65 226.06 m 2,0,1
 286.65 332 286.65 332 211 332 c 0,2,3
 121.84 332 121.84 332 121.84 226.06 c 1,4,-1
 121.84 -5 l 1,5,-1
 28.14 -5.00003 l 1,6,-1
 28.14 415 l 1,7,-1
 118.52 415 l 5,8,-1
 118.52 380.983 l 1,9,10
 144.949 432.3 144.949 432.3 210.877 432.3 c 0,11,12
 381.5 432.3 381.5 432.3 381.5 226.06 c 1,13,-1
 381.5 -5 l 1,14,-1
 286.65 -5 l 1,15,-1
 286.65 226.06 l 2,0,1
EndSplineSet
EndChar

StartChar: o
Encoding: 111 111 82
Width: 498
Flags: W
HStem: -12.6501 74.4<204.497 306.034> 356.61 76.17<207.68 294.406>
VStem: 16.7099 86.8601<167.676 250.014> 394.32 82.44<172.018 254.142>
LayerCount: 2
Fore
SplineSet
335.001 325.097 m 128,-1,1
 299.824 351.61 299.824 351.61 252.013 351.61 c 128,-1,2
 204.202 351.61 204.202 351.61 171.211 329.959 c 128,-1,3
 138.221 308.308 138.221 308.308 123.395 276.806 c 128,-1,4
 108.57 245.303 108.57 245.303 108.57 208.667 c 128,-1,5
 108.57 172.03 108.57 172.03 122.661 140.268 c 128,-1,6
 136.752 108.506 136.752 108.506 168.838 87.6204 c 128,-1,7
 200.901 66.7499 200.901 66.7499 245.047 66.7499 c 0,8,9
 313.186 66.7499 313.186 66.7499 352.799 110.621 c 0,10,11
 389.32 151.067 389.32 151.067 389.32 213.07 c 0,12,13
 389.32 238.083 389.32 238.083 379.799 268.296 c 128,-1,0
 370.277 298.509 370.277 298.509 335.001 325.097 c 128,-1,1
481.76 210.57 m 128,-1,15
 481.76 151.497 481.76 151.497 456.266 100.501 c 128,-1,16
 430.772 49.506 430.772 49.506 375.114 15.8996 c 128,-1,17
 319.551 -17.6501 319.551 -17.6501 244.98 -17.6501 c 130,-1,18
 170.409 -17.6501 170.409 -17.6501 114.729 15.9641 c 0,19,20
 11.7099 78.1569 11.7099 78.1569 11.7099 210.57 c 0,21,22
 11.7099 338.919 11.7099 338.919 119.876 404.23 c 0,23,24
 175.438 437.78 175.438 437.78 250.031 437.78 c 130,-1,25
 324.625 437.78 324.625 437.78 379.211 404.188 c 128,-1,26
 433.897 370.534 433.897 370.534 457.828 320.046 c 128,-1,14
 481.76 269.558 481.76 269.558 481.76 210.57 c 128,-1,15
EndSplineSet
EndChar

StartChar: p
Encoding: 112 112 83
Width: 447
Flags: W
HStem: -201 21G<38 118> -10 80.45<150.471 326.456> 348.55 71.45<164.023 326.524>
VStem: 38 80<-201 48 88.99 330.01 363 410> 343 85<88.99 330.01>
LayerCount: 2
Fore
SplineSet
123 27.2282 m 1,0,-1
 123 -206 l 1,1,-1
 33 -206 l 1,2,-1
 33 415 l 1,3,-1
 124 415 l 1,4,-1
 124 378.646 l 1,5,6
 160.614 425 160.614 425 219 425 c 0,7,8
 433 425 433 425 433 210 c 0,9,10
 433 -15 433 -15 212 -15 c 0,11,12
 150.261 -15 150.261 -15 123 27.2282 c 1,0,-1
218.92 75.45 m 0,13,14
 338 75.45 338 75.45 338 209.5 c 128,-1,15
 338 343.55 338 343.55 219.43 343.55 c 0,16,17
 123.96 343.55 123.96 343.55 123.96 209.5 c 128,-1,18
 123.96 75.45 123.96 75.45 218.92 75.45 c 0,13,14
EndSplineSet
EndChar

StartChar: q
Encoding: 113 113 84
Width: 450
Flags: W
HStem: -201 21G<341.26 420.87> -10.28 80.86<121.67 315.944> 339.33 80.74<121.615 309.587>
VStem: 23.64 80.31<88.564 321.485> 339.88 80.99<-201 -127.27 89.761 322.682 365.81 409.91>
LayerCount: 2
Fore
SplineSet
334.88 386.544 m 1,0,-1
 334.88 415 l 1,1,-1
 425.87 415 l 5,2,-1
 425.87 -206 l 1,3,-1
 336.26 -206 l 1,4,-1
 336.26 16.0802 l 1,5,6
 309.629 -15.2788 309.629 -15.2788 233.889 -15.2788 c 0,7,8
 18.64 -15.2788 18.64 -15.2788 18.64 204.896 c 128,-1,9
 18.64 425.07 18.64 425.07 240.18 425.07 c 0,10,11
 308.3 425.07 308.3 425.07 334.88 386.544 c 1,0,-1
236.85 75.58 m 0,12,13
 336.63 75.58 336.63 75.58 336.63 214.47 c 0,14,15
 336.63 334.33 336.63 334.33 236.47 334.33 c 0,16,17
 108.95 334.33 108.95 334.33 108.95 204.955 c 128,-1,18
 108.95 75.58 108.95 75.58 236.85 75.58 c 0,12,13
EndSplineSet
EndChar

StartChar: r
Encoding: 114 114 85
Width: 331
Flags: W
HStem: 0 21G<42 122> 405 20G<241.805 271>
VStem: 42 80<0 222.011 343 410>
LayerCount: 2
Fore
SplineSet
284.889 324.236 m 1,0,1
 257.06 331.342 257.06 331.342 224.839 323.908 c 128,-1,2
 192.618 316.474 192.618 316.474 173.917 296.331 c 128,-1,3
 155.215 276.189 155.215 276.189 141.107 245.552 c 128,-1,4
 127 214.915 127 214.915 127 189.02 c 2,5,-1
 127 -5 l 1,6,-1
 37 -5 l 1,7,-1
 37 415 l 1,8,-1
 128 415 l 1,9,-1
 128 367.064 l 1,10,11
 131.464 371.452 131.464 371.452 150.334 388.87 c 0,12,13
 194.893 430 194.893 430 261.5 430 c 0,14,15
 294.483 430 294.483 430 324.475 415 c 1,16,-1
 284.889 324.236 l 1,0,1
EndSplineSet
EndChar

StartChar: s
Encoding: 115 115 86
Width: 329
Flags: W
HStem: -15.094 91.6007<89.3057 240.413>
VStem: 225.492 99.135<68.075 147.286>
LayerCount: 2
Fore
SplineSet
1.04522 73.1806 m 1,0,-1
 73.2329 131.141 l 1,1,2
 107.795 76.5067 107.795 76.5067 169.426 76.5067 c 0,3,4
 224.031 76.5067 224.031 76.5067 225.492 124.079 c 0,5,6
 225.505 124.502 225.505 124.502 225.505 125.099 c 0,7,8
 225.505 142.166 225.505 142.166 208.415 154.616 c 0,9,10
 192.139 166.474 192.139 166.474 142.553 186.436 c 0,11,12
 46.4639 226.325 46.4639 226.325 46.4639 328.689 c 0,13,14
 46.4639 374.583 46.4639 374.583 83.0312 403.864 c 0,15,16
 123.817 436.523 123.817 436.523 180.142 436.523 c 0,17,18
 216.909 436.523 216.909 436.523 245.84 422.862 c 0,19,20
 280.74 406.301 280.74 406.301 304.165 376.081 c 1,21,-1
 264.156 313.799 l 1,22,23
 220.5 357 220.5 357 180.205 350.643 c 0,24,25
 151.455 346.971 151.455 346.971 143.501 338.338 c 0,26,27
 132.165 326.033 132.165 326.033 132.165 317.24 c 128,-1,28
 132.165 308.446 132.165 308.446 132.563 305.671 c 0,29,30
 136.939 275.162 136.939 275.162 212.964 250.652 c 128,-1,31
 288.988 226.143 288.988 226.143 310.601 178.761 c 0,32,33
 324.627 148.012 324.627 148.012 324.627 113.257 c 128,-1,34
 324.627 78.5016 324.627 78.5016 298.693 42.602 c 0,35,36
 257.013 -15.094 257.013 -15.094 166.353 -15.094 c 0,37,38
 36.828 -15.094 36.828 -15.094 1.04522 73.1806 c 1,0,-1
EndSplineSet
EndChar

StartChar: t
Encoding: 116 116 87
Width: 243
Flags: W
HStem: 0 21G<79.3 160.01> 336.5 90<22.43 79.3 162 219.86>
VStem: 82.28 79.72<0 336.5 426.5 596.26>
LayerCount: 2
Fore
SplineSet
170 415.5 m 5,0,-1
 224.86 415.5 l 1,1,-1
 224.86 315.5 l 1,2,-1
 168.01 315.5 l 1,3,-1
 168.01 -5 l 1,4,-1
 71.2998 -5 l 1,5,-1
 71.2998 316.5 l 1,6,-1
 17.4297 316.5 l 1,7,-1
 17.4297 415.5 l 1,8,-1
 74.2803 415.5 l 1,9,-1
 74.2803 599.674 l 1,10,-1
 170 634.754 l 1,11,-1
 170 415.5 l 5,0,-1
EndSplineSet
EndChar

StartChar: u
Encoding: 117 117 88
Width: 394
Flags: W
HStem: -10.5 77.81<117.66 256.183>
VStem: 23 82<83.673 410> 288 76<87.131 410>
LayerCount: 2
Fore
SplineSet
174.441 -15.52 m 2,0,-1
 170.475 -15.52 l 1,1,2
 18 -15.52 18 -15.52 18 199 c 1,3,-1
 18 415 l 1,4,-1
 110 415 l 1,5,-1
 110 190 l 2,6,7
 110 72.31 110 72.31 199.95 72.31 c 0,8,9
 278 72.31 278 72.31 278 216 c 2,10,-1
 278 415 l 1,11,-1
 369 415 l 1,12,-1
 369 -5 l 1,13,-1
 275 -5 l 1,14,-1
 275 17.2314 l 1,15,16
 248.776 -15.52 248.776 -15.52 174.441 -15.52 c 2,0,-1
EndSplineSet
EndChar

StartChar: v
Encoding: 118 118 89
Width: 395
Flags: W
HStem: -41.94 467.5<188.11 302.94>
VStem: -2.24999 388.3<400.65 401.53>
LayerCount: 2
Fore
SplineSet
392.957 404.738 m 1,0,-1
 188.025 -54.3974 l 1,1,-1
 -9.1098 403.944 l 1,2,-1
 83.3084 429.439 l 1,3,-1
 87.5071 427.418 l 1,4,-1
 89.7329 425.425 l 1,5,-1
 189.384 188.527 l 1,6,-1
 300.181 431.562 l 1,7,-1
 392.957 404.738 l 1,0,-1
EndSplineSet
EndChar

StartChar: w
Encoding: 119 119 90
Width: 608
Flags: W
HStem: -33.08 455.93<77.01 388.67>
LayerCount: 2
Fore
SplineSet
6.38184 399.062 m 1,0,-1
 93.7158 429.066 l 1,1,-1
 202.155 185.479 l 1,2,-1
 302.42 408.284 l 1,3,-1
 402.757 185.318 l 1,4,-1
 514.625 428.771 l 1,5,-1
 598.435 399.011 l 1,6,-1
 402.817 -45.1504 l 1,7,-1
 302.42 168.503 l 1,8,-1
 202.023 -45.1504 l 1,9,-1
 6.38184 399.062 l 1,0,-1
EndSplineSet
EndChar

StartChar: x
Encoding: 120 120 91
Width: 400
Flags: W
HStem: -18.79 444.39<273.08 302.78>
VStem: 0.679993 376.14<24.44 25.39>
LayerCount: 2
Fore
SplineSet
145.741 228.313 m 1,0,-1
 26.5205 400.915 l 1,1,-1
 129.617 430.51 l 1,2,-1
 202.754 312.501 l 1,3,-1
 281.036 431.594 l 1,4,-1
 371.168 400.511 l 1,5,-1
 257.541 229.181 l 1,6,-1
 395.843 23.7207 l 1,7,-1
 311.154 -25.5137 l 1,8,-1
 201.743 144.952 l 1,9,-1
 94.166 -25.3018 l 1,10,-1
 3.36035 22.6514 l 1,11,-1
 145.741 228.313 l 1,0,-1
EndSplineSet
EndChar

StartChar: y
Encoding: 121 121 92
Width: 450
Flags: W
VStem: 4.01001 409.56<401.5 402.34>
LayerCount: 2
Fore
SplineSet
151.597 71.9381 m 1,0,-1
 -2.85975 404.42 l 1,1,-1
 92.3357 437.245 l 1,2,-1
 206.781 187.636 l 1,3,-1
 333.001 438.284 l 1,4,-1
 420.456 405.073 l 1,5,-1
 130.24 -192.43 l 1,6,-1
 13.6718 -192.43 l 1,7,-1
 151.597 71.9381 l 1,0,-1
EndSplineSet
EndChar

StartChar: z
Encoding: 122 122 93
Width: 416
Flags: W
HStem: 0 86<175 403> 332 82<92 246>
VStem: 10 393<0 86>
LayerCount: 2
Fore
SplineSet
61.3268 327 m 1,0,-1
 88.2537 419 l 1,1,-1
 406.422 419 l 1,2,-1
 184.422 91 l 1,3,-1
 408 91 l 1,4,-1
 408 -5 l 1,5,-1
 0.311253 -5 l 1,6,-1
 236.311 327 l 1,7,-1
 61.3268 327 l 1,0,-1
EndSplineSet
EndChar

StartChar: asciitilde
Encoding: 126 126 94
Width: 496
Flags: W
HStem: 500 98<155 369>
VStem: 150 224<535.604 562.396 546 552>
LayerCount: 2
Fore
SplineSet
284.234 565.707 m 1,0,1
 289.699 548.923 289.699 548.923 302.762 548.923 c 128,-1,2
 315.825 548.923 315.825 548.923 320.945 554.286 c 0,3,4
 334.162 568.129 334.162 568.129 318.353 580.576 c 1,5,-1
 374 605.75 l 1,6,-1
 374 598 l 1,7,8
 380.667 581.56 380.667 581.56 380.667 569.989 c 0,9,10
 380.667 532.528 380.667 532.528 353.693 515.287 c 0,11,12
 326.282 497.767 326.282 497.767 305.526 497.767 c 0,13,14
 253.046 497.767 253.046 497.767 235.376 541.278 c 1,15,-1
 284.234 565.707 l 1,0,1
239.766 532.293 m 1,16,17
 234.301 549.077 234.301 549.077 221.238 549.077 c 128,-1,18
 208.175 549.077 208.175 549.077 203.055 543.714 c 0,19,20
 189.837 529.87 189.837 529.87 205.647 517.424 c 1,21,-1
 150 492.25 l 1,22,-1
 150 500 l 1,23,24
 143.333 516.44 143.333 516.44 143.333 528.011 c 0,25,26
 143.333 565.472 143.333 565.472 170.307 582.713 c 0,27,28
 197.718 600.233 197.718 600.233 218.474 600.233 c 0,29,30
 270.954 600.233 270.954 600.233 288.624 556.722 c 1,31,-1
 239.766 532.293 l 1,16,17
EndSplineSet
EndChar

StartChar: exclamdown
Encoding: 161 161 95
Width: 238
Flags: W
HStem: 0 21G<68 148> 676 20G<101.665 116.335>
VStem: 68 80<0 441>
LayerCount: 2
Fore
SplineSet
63 -5 m 1,0,-1
 63 446 l 1,1,-1
 153 446 l 1,2,-1
 153 -5 l 1,3,-1
 63 -5 l 1,0,-1
46 634.5 m 128,-1,5
 46 664.155 46 664.155 65.5669 682.635 c 128,-1,6
 85.0122 701 85.0122 701 109 701 c 128,-1,7
 133.035 701 133.035 701 152.486 682.084 c 128,-1,8
 172 663.107 172 663.107 172 632.867 c 128,-1,9
 172 602.627 172 602.627 152.39 586.563 c 128,-1,10
 132.78 570.5 132.78 570.5 109 570.5 c 128,-1,11
 85.1213 570.5 85.1213 570.5 65.5607 587.615 c 128,-1,4
 46 604.731 46 604.731 46 634.5 c 128,-1,5
EndSplineSet
EndChar

StartChar: yen
Encoding: 165 165 96
Width: 604
Flags: W
HStem: 112.02 87.99<48.2 256.04 355.43 551.21> 292.02 87.99<45.16 223.74 385.62 548.21> 672 20G<16.07 122.5 483.95 590.38>
VStem: 256.04 99.39<1.52588e-05 112.02 200.01 292.02>
LayerCount: 2
Fore
SplineSet
6.73547 697 m 1,0,-1
 125.175 697 l 1,1,-1
 305.203 427.091 l 1,2,-1
 481.242 697 l 1,3,-1
 599.642 697 l 1,4,-1
 394.882 385.01 l 1,5,-1
 553.21 385.01 l 1,6,-1
 553.21 287.02 l 1,7,-1
 360.43 287.02 l 1,8,-1
 360.43 205.01 l 1,9,-1
 556.21 205.01 l 1,10,-1
 556.21 107.02 l 1,11,-1
 360.43 107.02 l 1,12,-1
 360.43 -4.99998 l 1,13,-1
 251.04 -4.99998 l 1,14,-1
 251.04 107.02 l 1,15,-1
 43.2 107.02 l 1,16,-1
 43.2 205.01 l 1,17,-1
 251.04 205.01 l 1,18,-1
 251.04 287.02 l 1,19,-1
 40.16 287.02 l 1,20,-1
 40.16 385.01 l 1,21,-1
 214.405 385.01 l 1,22,-1
 6.73547 697 l 1,0,-1
EndSplineSet
EndChar

StartChar: dieresis
Encoding: 200 168 97
Width: 413
Flags: W
HStem: 740 119<94.4 151.6 281.4 338.6>
VStem: 65 116<764.306 835.1> 252 116<764.306 835.1>
LayerCount: 2
Fore
SplineSet
79.6782 846.737 m 0,0,1
 99.0989 864 99.0989 864 123 864 c 128,-1,2
 146.81 864 146.81 864 166.201 847.841 c 0,3,4
 186 831.342 186 831.342 186 802 c 0,5,6
 186 770.803 186 770.803 166.379 752.814 c 128,-1,7
 146.948 735 146.948 735 123 735 c 128,-1,8
 99.099 735 99.099 735 79.6782 752.263 c 0,9,10
 60 769.755 60 769.755 60 800 c 0,11,12
 60 829.245 60 829.245 79.6782 846.737 c 0,0,1
266.678 846.737 m 0,13,14
 286.099 864 286.099 864 310 864 c 128,-1,15
 333.81 864 333.81 864 353.201 847.841 c 0,16,17
 373 831.342 373 831.342 373 802 c 0,18,19
 373 770.803 373 770.803 353.379 752.814 c 128,-1,20
 333.948 735 333.948 735 310 735 c 128,-1,21
 286.099 735 286.099 735 266.678 752.263 c 0,22,23
 247 769.755 247 769.755 247 800 c 0,24,25
 247 829.245 247 829.245 266.678 846.737 c 0,13,14
EndSplineSet
EndChar

StartChar: guillemotleft
Encoding: 171 171 98
Width: 515
Flags: W
HStem: 138 292<237 444>
VStem: 33 411<292 428>
LayerCount: 2
Fore
SplineSet
454 437.483 m 1,0,-1
 454 338.352 l 1,1,-1
 379.576 287.782 l 1,2,-1
 454 231.487 l 1,3,-1
 454 128.049 l 1,4,-1
 237.396 289.168 l 1,5,-1
 454 437.483 l 1,0,-1
242 439.419 m 1,6,-1
 242 341.38 l 1,7,-1
 167.575 289.855 l 1,8,-1
 242 234.513 l 1,9,-1
 242 130.039 l 1,10,-1
 24.3674 292.197 l 1,11,-1
 242 439.419 l 1,6,-1
EndSplineSet
EndChar

StartChar: degree
Encoding: 258 176 99
Width: 560
Flags: W
HStem: 730 136<254.39 305.61 280 280>
VStem: 210 46<786.775 818.449> 305 45<786.572 819.3>
LayerCount: 2
Fore
SplineSet
261 802 m 0,0,1
 261 787 261 787 280.297 787 c 0,2,3
 300 787 300 787 300 803.001 c 0,4,5
 300 814.965 300 814.965 292.628 818.797 c 128,-1,6
 285.256 822.63 285.256 822.63 280.414 822.63 c 128,-1,7
 275.573 822.63 275.573 822.63 268.286 818.379 c 128,-1,8
 261 814.127 261 814.127 261 802 c 0,0,1
280.014 725 m 128,-1,10
 252.186 725 252.186 725 228.593 744.832 c 128,-1,11
 205 764.664 205 764.664 205 800.082 c 128,-1,12
 205 835.499 205 835.499 228.666 853.25 c 128,-1,13
 252.332 871 252.332 871 280 871 c 128,-1,14
 307.858 871 307.858 871 331.429 850.645 c 128,-1,15
 355 830.29 355 830.29 355 798.001 c 128,-1,16
 355 765.712 355 765.712 331.43 745.356 c 128,-1,9
 307.861 725 307.861 725 280.014 725 c 128,-1,10
EndSplineSet
EndChar

StartChar: plusminus
Encoding: 259 177 100
Width: 495
Flags: W
HStem: 127 91<54 442> 474 90<62 202 293 429> 687 20G<202 292>
VStem: 203 90<318 473 564 707>
LayerCount: 2
Fore
SplineSet
447 122 m 1,0,-1
 49 122 l 1,1,-1
 49 223 l 1,2,-1
 447 223 l 1,3,-1
 447 122 l 1,0,-1
298 469 m 1,4,-1
 298 313 l 1,5,-1
 198 313 l 1,6,-1
 198 468 l 1,7,-1
 57 468 l 1,8,-1
 57 566 l 1,9,-1
 197 566 l 1,10,-1
 197 712 l 1,11,-1
 297 712 l 1,12,-1
 297 569 l 1,13,-1
 434 569 l 1,14,-1
 434 469 l 1,15,-1
 298 469 l 1,4,-1
EndSplineSet
EndChar

StartChar: uni00B2
Encoding: 260 178 101
Width: 402
Flags: W
HStem: 525 46<243 380>
VStem: 151 229<525 571>
LayerCount: 2
Fore
SplineSet
274.11 829.233 m 0,0,1
 231.207 829.233 231.207 829.233 220.71 790.324 c 1,2,-1
 172.547 821.198 l 1,3,4
 199.027 881 199.027 881 275 881 c 0,5,6
 327.177 881 327.177 881 351.335 854.916 c 128,-1,7
 375.493 828.831 375.493 828.831 375.493 793.325 c 0,8,9
 375.493 741.503 375.493 741.503 333.03 682.042 c 2,10,-1
 253.035 576 l 1,11,-1
 385 576 l 1,12,-1
 385 520 l 1,13,-1
 140.858 520 l 1,14,-1
 298.921 725.885 l 2,15,16
 319.806 758.016 319.806 758.016 319.806 783.766 c 0,17,18
 319.806 819.677 319.806 819.677 283.854 828.133 c 0,19,20
 279.177 829.233 279.177 829.233 274.11 829.233 c 0,0,1
EndSplineSet
EndChar

StartChar: uni00B3
Encoding: 261 179 102
Width: 382
Flags: W
HStem: 440.342 22.1936<395.639 433.005> 526.594 20.176<405.162 426.347>
VStem: 362.288 112.733<453.456 506.166>
LayerCount: 2
Fore
SplineSet
156.392 600.74 m 1,0,1
 200.682 577.877 200.682 577.877 232.751 577.817 c 128,-1,2
 264.82 577.759 264.82 577.759 277.848 581.796 c 128,-1,3
 290.876 585.834 290.876 585.834 300.798 595.506 c 0,4,5
 319.672 613.907 319.672 613.907 319.672 647.322 c 128,-1,6
 319.672 680.737 319.672 680.737 286.829 699.961 c 128,-1,7
 253.986 719.185 253.986 719.185 207.656 719.185 c 2,8,-1
 198.646 719.185 l 1,9,-1
 290.951 841.366 l 1,10,-1
 162.3 841.366 l 1,11,-1
 162.3 890.604 l 1,12,-1
 378.022 890.604 l 1,13,-1
 278.406 752.557 l 1,14,15
 321.008 742.841 321.008 742.841 343.504 719.335 c 128,-1,16
 366 695.829 366 695.829 366 645 c 128,-1,17
 366 594.136 366 594.136 330.127 561.061 c 128,-1,18
 294.287 528.018 294.287 528.018 238.173 528.018 c 0,19,20
 181.41 528.122 181.41 528.122 126.544 556.876 c 1,21,-1
 156.392 600.74 l 1,0,1
373.116 622.381 m 0,22,-1
EndSplineSet
EndChar

StartChar: acute
Encoding: 194 180 103
Width: 1000
Flags: W
HStem: 791 194<334 424>
VStem: 284 202<838 912>
LayerCount: 2
Fore
SplineSet
424.213 992.473 m 1,0,-1
 493.152 911.303 l 1,1,-1
 333.728 787 l 1,2,-1
 276.908 837.804 l 1,3,-1
 424.213 992.473 l 1,0,-1
EndSplineSet
EndChar

StartChar: uni00B9
Encoding: 262 185 104
Width: 284
Flags: W
VStem: 174 49<530 786>
LayerCount: 2
Fore
SplineSet
170.058 774.33 m 1,0,-1
 161.308 764.984 l 1,1,-1
 122.622 799.926 l 1,2,-1
 227 902.759 l 1,3,-1
 227 530 l 1,4,-1
 229 525 l 1,5,-1
 170 525 l 1,6,-1
 170 530 l 1,7,-1
 170.058 774.33 l 1,0,-1
EndSplineSet
EndChar

StartChar: guillemotright
Encoding: 187 187 105
Width: 487
Flags: W
HStem: 138 292<34 242>
VStem: 34 411<292 428>
LayerCount: 2
Fore
SplineSet
29 437.457 m 1,0,-1
 246.632 289.169 l 1,1,-1
 29 128.078 l 1,2,-1
 29 231.487 l 1,3,-1
 103.424 287.782 l 1,4,-1
 29 338.352 l 1,5,-1
 29 437.457 l 1,0,-1
242 439.445 m 1,6,-1
 458.605 292.197 l 1,7,-1
 242 130.01 l 1,8,-1
 242 234.513 l 1,9,-1
 316.426 289.855 l 1,10,-1
 242 341.38 l 1,11,-1
 242 439.445 l 1,6,-1
EndSplineSet
EndChar

StartChar: questiondown
Encoding: 191 191 106
Width: 399
Flags: W
HStem: -3.05176e-05 77<162.529 294.973> 729 20G<253.665 268.335>
VStem: 47 82<109.929 220.683> 216 88<441.795 529>
LayerCount: 2
Fore
SplineSet
405.193 69.4417 m 1,0,1
 341.622 -5.00003 341.622 -5.00003 231 -5.00003 c 0,2,3
 150.01 -5.00003 150.01 -5.00003 96.005 45.9223 c 128,-1,4
 42 96.8447 42 96.8447 42 181 c 0,5,6
 42 224.223 42 224.223 59.9105 259.037 c 128,-1,7
 77.821 293.851 77.821 293.851 120.383 338.452 c 2,8,-1
 162.383 382.452 l 2,9,10
 197.999 419.77 197.999 419.77 204.499 440.257 c 128,-1,11
 211 460.743 211 460.743 211 512 c 2,12,-1
 213.554 534 l 1,13,-1
 309 534 l 1,14,-1
 309 501 l 2,15,16
 309 441.833 309 441.833 293.41 410.193 c 128,-1,17
 277.82 378.554 277.82 378.554 237.671 335.605 c 2,18,-1
 194.673 288.607 l 2,19,20
 191.021 284.693 191.021 284.693 179.858 274.149 c 0,21,22
 134 230.836 134 230.836 134 191 c 0,23,24
 134 82 134 82 244 82 c 0,25,26
 300.503 82 300.503 82 326.694 112.743 c 2,27,-1
 357.85 147.219 l 1,28,-1
 405.193 69.4417 l 1,0,1
324 689.5 m 128,-1,30
 324 659.734 324 659.734 304.441 642.617 c 128,-1,31
 284.882 625.5 284.882 625.5 261 625.5 c 128,-1,32
 237.22 625.5 237.22 625.5 217.61 641.563 c 128,-1,33
 198 657.627 198 657.627 198 688 c 128,-1,34
 198 718.202 198 718.202 217.622 736.186 c 128,-1,35
 237.058 754 237.058 754 261 754 c 128,-1,36
 284.904 754 284.904 754 304.452 736.621 c 128,-1,29
 324 719.242 324 719.242 324 689.5 c 128,-1,30
EndSplineSet
EndChar

StartChar: multiply
Encoding: 281 215 125
Width: 495
Flags: W
HStem: 187 338<143 355>
VStem: 79 340<251 461>
LayerCount: 2
Fore
SplineSet
316.069 360.034 m 1,0,-1
 426.087 251.016 l 1,1,-1
 355.016 179.945 l 1,2,-1
 245.052 288.909 l 1,3,-1
 147.036 188.893 l 1,4,-1
 75.9289 260 l 1,5,-1
 176.842 360.913 l 1,6,-1
 71.8417 460.913 l 1,7,-1
 142.983 532.054 l 1,8,-1
 244.964 431.072 l 1,9,-1
 340.982 528.089 l 1,10,-1
 412.053 457.018 l 1,11,-1
 316.069 360.034 l 1,0,-1
EndSplineSet
EndChar

StartChar: dotlessi
Encoding: 245 305 158
Width: 207
Flags: W
HStem: 0 21G<61 151> 413 20G<59 151>
VStem: 59 92<0 433>
LayerCount: 2
Fore
SplineSet
151 438 m 1,0,-1
 156 438 l 1,1,-1
 156 433 l 1,2,-1
 156 -2.18557e-07 l 1,3,-1
 156 -5 l 1,4,-1
 151 -5 l 1,5,-1
 61 -5 l 1,6,-1
 56.023 -5 l 1,7,-1
 56.0001 -0.0230946 l 1,8,-1
 54.0001 432.977 l 1,9,-1
 53.9769 438 l 1,10,-1
 59 438 l 1,11,-1
 151 438 l 1,0,-1
EndSplineSet
EndChar

StartChar: uni030A
Encoding: 322 778 167
Width: 154
Flags: W
HStem: 719.5 135.5<50.3903 101.61 76 76>
VStem: 6 46<773.744 808.256> 101 45<774.595 808.3>
LayerCount: 2
Fore
SplineSet
57 791 m 128,-1,1
 57 777.974 57 777.974 66.38 772.897 c 0,2,3
 71.0494 770.37 71.0494 770.37 75.6773 770.37 c 0,4,5
 80.719 770.37 80.719 770.37 86.0549 773.361 c 0,6,7
 96 778.937 96 778.937 96 792 c 0,8,9
 96 803.966 96 803.966 86.1939 809.064 c 0,10,11
 81.0297 811.748 81.0297 811.748 76.1262 811.748 c 128,-1,12
 71.2674 811.748 71.2674 811.748 66.38 809.103 c 0,13,0
 57 804.026 57 804.026 57 791 c 128,-1,1
25.0591 843.044 m 0,14,15
 48.3728 860 48.3728 860 75.9836 860 c 0,16,17
 103.858 860 103.858 860 127.268 839.784 c 0,18,19
 151 819.29 151 819.29 151 788.013 c 0,20,21
 151 754.687 151 754.687 127.243 734.444 c 0,22,23
 103.836 714.5 103.836 714.5 76 714.5 c 128,-1,24
 48.198 714.5 48.198 714.5 24.8079 733.902 c 0,25,26
 1 753.65 1 753.65 1 790 c 0,27,28
 1 825.545 1 825.545 25.0591 843.044 c 0,14,15
EndSplineSet
EndChar

StartChar: quoteleft
Encoding: 96 8216 168
Width: 187
Flags: W
HStem: 567.5 178.5<89 113>
VStem: 40 61<616 696>
LayerCount: 2
Fore
SplineSet
132.58 612.819 m 0,0,1
 132.58 596.345 132.58 596.345 121.288 583.237 c 0,2,3
 107.81 567.591 107.81 567.591 90.3526 562.686 c 0,4,5
 85.3217 561.273 85.3217 561.273 80.2359 561.273 c 0,6,7
 66.8734 561.273 66.8734 561.273 53.5591 570.956 c 0,8,9
 35 584.454 35 584.454 35 616 c 0,10,11
 35 662.395 35 662.395 58.7225 701.589 c 0,12,13
 82.6745 741.162 82.6745 741.162 111.419 750.743 c 2,14,-1
 128.55 756.454 l 1,15,-1
 116.796 742.745 l 2,16,17
 106 730.155 106 730.155 106 696 c 0,18,19
 106 662.433 106 662.433 115.614 648.544 c 1,20,21
 131.355 636.676 131.355 636.676 131.998 620.396 c 0,22,23
 132.042 619.277 132.042 619.277 132.311 616.725 c 0,24,25
 132.58 614.173 132.58 614.173 132.58 612.819 c 0,0,1
EndSplineSet
EndChar

StartChar: quoteright
Encoding: 39 8217 169
Width: 187
Flags: W
HStem: 558 179.5<80 89.5>
LayerCount: 2
Fore
SplineSet
60.6764 719.011 m 0,0,1
 70.5963 736.09 70.5963 736.09 87.8261 742.211 c 0,2,3
 93.8013 744.334 93.8013 744.334 99.8835 744.334 c 0,4,5
 111.876 744.334 111.876 744.334 123.831 736.121 c 0,6,7
 141.922 723.694 141.922 723.694 146.938 693.777 c 0,8,9
 148.309 685.602 148.309 685.602 148.309 673.992 c 0,10,11
 148.309 639.022 148.309 639.022 130.904 606.633 c 0,12,13
 108.591 565.11 108.591 565.11 82.0126 553.423 c 2,14,-1
 70.2836 548.266 l 1,15,-1
 75.4192 560.004 l 2,16,17
 82 575.046 82 575.046 82 611 c 0,18,19
 82 645.274 82 645.274 68.7891 653.799 c 0,20,21
 51.0027 665.276 51.0027 665.276 51 681.999 c 0,22,23
 50.9967 702.346 50.9967 702.346 60.6764 719.011 c 0,0,1
EndSplineSet
EndChar

StartChar: quotedblleft
Encoding: 170 8220 170
Width: 292
Flags: W
HStem: 567.5 180.5<89 235>
VStem: 40 61<616 696> 162 61.5<618 696>
LayerCount: 2
Fore
SplineSet
243.032 586.044 m 0,0,1
 230.961 569.579 230.961 569.579 212.679 565.141 c 0,2,3
 207.972 563.998 207.972 563.998 203.248 563.998 c 0,4,5
 189.251 563.998 189.251 563.998 175.559 573.956 c 0,6,7
 157 587.454 157 587.454 157 618 c 0,8,9
 157 664.395 157 664.395 180.723 703.589 c 0,10,11
 204.675 743.162 204.675 743.162 233.419 752.743 c 2,12,-1
 248.476 757.763 l 1,13,-1
 239.014 745.019 l 2,14,15
 228.5 730.858 228.5 730.858 228.5 696.032 c 0,16,17
 228.5 662.05 228.5 662.05 237.344 651.765 c 1,18,19
 255 639.359 255 639.359 255 622 c 0,20,21
 255 602.367 255 602.367 243.032 586.044 c 0,0,1
132.58 612.819 m 0,22,23
 132.58 596.345 132.58 596.345 121.288 583.237 c 0,24,25
 107.81 567.591 107.81 567.591 90.3526 562.686 c 0,26,27
 85.3217 561.273 85.3217 561.273 80.2359 561.273 c 0,28,29
 66.8734 561.273 66.8734 561.273 53.5591 570.956 c 0,30,31
 35 584.454 35 584.454 35 616 c 0,32,33
 35 662.395 35 662.395 58.7225 701.589 c 0,34,35
 82.6745 741.162 82.6745 741.162 111.419 750.743 c 2,36,-1
 128.55 756.454 l 1,37,-1
 116.796 742.745 l 2,38,39
 106 730.155 106 730.155 106 696 c 0,40,41
 106 662.433 106 662.433 115.614 648.544 c 1,42,43
 131.355 636.676 131.355 636.676 131.998 620.396 c 0,44,45
 132.042 619.277 132.042 619.277 132.311 616.725 c 0,46,47
 132.58 614.173 132.58 614.173 132.58 612.819 c 0,22,23
EndSplineSet
EndChar

StartChar: quotedblright
Encoding: 186 8221 171
Width: 358
Flags: W
HStem: 558 182<80 224.5>
LayerCount: 2
Fore
SplineSet
184.933 694.458 m 0,0,1
 184.933 708.814 184.933 708.814 193.879 721.832 c 0,2,3
 205.841 739.239 205.841 739.239 222.966 744.759 c 0,4,5
 228.711 746.611 228.711 746.611 234.546 746.611 c 0,6,7
 246.653 746.611 246.653 746.611 258.742 738.681 c 0,8,9
 276.941 726.744 276.941 726.744 281.939 696.77 c 0,10,11
 283.309 688.555 283.309 688.555 283.309 676.626 c 0,12,13
 283.309 641.112 283.309 641.112 265.892 609.11 c 0,14,15
 243.624 568.196 243.624 568.196 217.164 555.493 c 2,16,-1
 205.02 549.662 l 1,17,-1
 210.419 562.004 l 2,18,19
 217 577.046 217 577.046 217 613 c 0,20,21
 217 647.424 217 647.424 203.602 656.956 c 0,22,23
 187.072 668.715 187.072 668.715 186.006 684.434 c 0,24,25
 185.914 685.792 185.914 685.792 185.424 689.202 c 0,26,27
 184.933 692.612 184.933 692.612 184.933 694.458 c 0,0,1
60.6764 719.011 m 0,28,29
 70.5963 736.09 70.5963 736.09 87.8261 742.211 c 0,30,31
 93.8013 744.334 93.8013 744.334 99.8835 744.334 c 0,32,33
 111.876 744.334 111.876 744.334 123.831 736.121 c 0,34,35
 141.922 723.694 141.922 723.694 146.938 693.777 c 0,36,37
 148.309 685.602 148.309 685.602 148.309 673.992 c 0,38,39
 148.309 639.022 148.309 639.022 130.904 606.633 c 0,40,41
 108.591 565.11 108.591 565.11 82.0126 553.423 c 2,42,-1
 70.2836 548.266 l 1,43,-1
 75.4192 560.004 l 2,44,45
 82 575.046 82 575.046 82 611 c 0,46,47
 82 645.274 82 645.274 68.7891 653.799 c 0,48,49
 51.0027 665.276 51.0027 665.276 51 681.999 c 0,50,51
 50.9967 702.346 50.9967 702.346 60.6764 719.011 c 0,28,29
EndSplineSet
EndChar

StartChar: uniFB00
Encoding: 323 64256 172
Width: 534
Flags: W
LayerCount: 2
Fore
SplineSet
457 541 m 1,0,1
 439 552 439 552 414 547.5 c 0,2,3
 382.541 541.837 382.541 541.837 375.5 524 c 0,4,5
 366 505 366 505 366 415 c 1,6,-1
 434 415 l 1,7,-1
 434 323 l 1,8,-1
 367 323 l 1,9,-1
 367 -5 l 1,10,-1
 270 -5 l 1,11,-1
 270 325 l 1,12,-1
 236 325 l 1,13,-1
 236 415 l 1,14,-1
 274 415 l 1,15,16
 274 481 274 481 287 528 c 1,17,18
 276 559 276 559 235 559 c 2,19,-1
 234 559 l 2,20,21
 172 559 172 559 172 415 c 1,22,-1
 221 415 l 1,23,-1
 221 325 l 1,24,-1
 170 325 l 1,25,-1
 170 -5 l 1,26,-1
 73 -5 l 1,27,-1
 73 327 l 1,28,-1
 24 327 l 1,29,-1
 24 415 l 1,30,-1
 77 415 l 1,31,32
 77 647 77 647 232 647 c 0,33,34
 294 647 294 647 326 607 c 1,35,36
 366 647 366 647 427 647 c 0,37,38
 451 647 451 647 474.5 637 c 128,-1,39
 498 627 498 627 509 608 c 1,40,-1
 457 541 l 1,0,1
EndSplineSet
LCarets2: 1 0 
Ligature2: "'liga' Standard Ligatures in Latin lookup 0 subtable" f f
EndChar

StartChar: germandbls
Encoding: 251 223 173
Width: 413
Flags: W
HStem: 344.01 79.99<6.07031 62.1396> 344.01 75.67<149.67 301.35>
VStem: 62.1396 84.1904<0 344.01> 66.62 83.05<419.68 487.091>
LayerCount: 2
Fore
SplineSet
214 647 m 0,0,-1
 215 647 l 1,1,2
 287 647 287 647 316.498 616.673 c 1,3,-1
 263.378 540.663 l 1,4,5
 242.183 550.449 242.183 550.449 214.67 550.449 c 0,6,7
 158.69 550.449 158.69 550.449 158.69 424.68 c 1,8,-1
 402.16 424.68 l 1,9,-1
 402.16 342.571 l 1,10,-1
 341.205 245.48 l 1,11,12
 397.82 191.176 397.82 191.176 397.82 96.8076 c 128,-1,13
 397.82 2.43848 397.82 2.43848 307.055 -63.9102 c 1,14,-1
 188.859 -63.91 l 1,15,-1
 201.022 -54.8935 l 2,16,17
 301.347 19.4779 301.347 19.4779 301.347 108.879 c 0,18,19
 301.347 178.82 301.347 178.82 231.669 243.908 c 1,20,-1
 292.238 339.01 l 1,21,-1
 155.33 339.01 l 1,22,-1
 155.33 -5 l 1,23,-1
 57.1396 -5 l 1,24,-1
 57.1396 339.01 l 1,25,-1
 1.06998 339.01 l 1,26,-1
 1.06998 429 l 1,27,-1
 61.6482 429 l 1,28,29
 61.6482 647 61.6482 647 214 647 c 0,0,-1
EndSplineSet
EndChar

StartChar: longs
Encoding: 324 383 174
Width: 274
Flags: W
HStem: 0 21G<45 125>
VStem: 45 80<0 487.471>
LayerCount: 2
Fore
SplineSet
108.648 608.71 m 0,0,1
 151.026 647 151.026 647 195.989 647 c 0,2,3
 265.719 647 265.719 647 278.904 621.949 c 1,4,-1
 226.73 540.427 l 1,5,-1
 206.776 550.991 l 1,6,7
 175.235 550.991 175.235 550.991 156.117 523.705 c 128,-1,8
 137 496.419 137 496.419 137 419.039 c 2,9,-1
 137 -5 l 5,10,-1
 40 -5 l 1,11,-1
 40 421 l 2,12,13
 40 546.684 40 546.684 108.648 608.71 c 0,0,1
EndSplineSet
EndChar

StartChar: cent
Encoding: 162 162 175
Width: 588
Flags: W
VStem: 130.4 76.8<321.6 400.64> 296.8 61.6<93.6 172.8 244.8 477.6 548.8 610.4>
LayerCount: 2
Fore
SplineSet
363.4 553.68 m 1,0,1
 398.54 553.68 398.54 553.68 450.6 528.903 c 1,2,-1
 450.6 435.635 l 1,3,4
 409.187 473.286 409.187 473.286 363.4 473.286 c 1,5,-1
 363.4 251.186 l 1,6,7
 411.712 263.993 411.712 263.993 450.6 291.746 c 1,8,-1
 450.6 198.056 l 1,9,10
 407.585 167.891 407.585 167.891 363.4 167.891 c 1,11,-1
 363.4 88.6 l 1,12,-1
 291.8 88.6 l 1,13,-1
 291.8 169.464 l 1,14,15
 220.07 169.464 220.07 169.464 172.735 224.998 c 128,-1,16
 125.4 280.532 125.4 280.532 125.4 358.198 c 128,-1,17
 125.4 435.864 125.4 435.864 171.314 487.109 c 128,-1,18
 217.228 538.354 217.228 538.354 291.8 551.433 c 1,19,-1
 291.8 615.4 l 1,20,-1
 363.4 615.4 l 1,21,-1
 363.4 553.68 l 1,0,1
291.8 471.345 m 1,22,23
 260.022 463.139 260.022 463.139 236.111 434.07 c 128,-1,24
 212.2 405.001 212.2 405.001 212.2 360.778 c 128,-1,25
 212.2 316.555 212.2 316.555 235.027 288.214 c 128,-1,26
 257.854 259.873 257.854 259.873 291.8 251.084 c 1,27,-1
 291.8 471.345 l 1,22,23
EndSplineSet
EndChar

StartChar: Euro
Encoding: 325 8364 176
Width: 524
Flags: W
HStem: 42.22 78.12<208.753 380.99> 263.13 70.17<12.54 63.91 143.4 359.98> 391.9 70.07<19.4 69.7 146.05 382.42> 595.74 83.08<200.351 374.528>
VStem: 69.7 68.41<333.3 391.9>
LayerCount: 2
Fore
SplineSet
471.21 87.2505 m 1,0,1
 402.25 37.22 402.25 37.22 306.379 37.22 c 0,2,3
 128.125 37.22 128.125 37.22 68.3997 258.13 c 1,4,-1
 -13.4299 258.13 l 1,5,-1
 8.73478 338.3 l 1,6,-1
 61.2764 338.3 l 1,7,8
 64.6847 348.474 64.6847 348.474 64.6847 386.9 c 1,9,-1
 -6.57239 386.9 l 1,10,-1
 15.5962 466.97 l 1,11,-1
 65.9377 466.97 l 1,12,13
 107.414 683.82 107.414 683.82 310.1 683.82 c 0,14,15
 387.957 683.82 387.957 683.82 465.36 621.856 c 1,16,-1
 465.36 511.269 l 1,17,-1
 456.643 520.955 l 2,18,19
 393.846 590.74 393.846 590.74 318.04 590.74 c 0,20,21
 189.258 590.74 189.258 590.74 152.661 466.97 c 1,22,-1
 418.593 466.97 l 1,23,-1
 385.774 386.9 l 1,24,-1
 143.11 386.9 l 1,25,-1
 143.11 338.3 l 1,26,-1
 396.039 338.3 l 1,27,-1
 363.341 258.13 l 1,28,-1
 150.485 258.13 l 1,29,30
 199.094 125.34 199.094 125.34 312.74 125.34 c 0,31,32
 389.558 125.34 389.558 125.34 462.871 191.102 c 2,33,-1
 471.21 198.582 l 1,34,-1
 471.21 87.2505 l 1,0,1
EndSplineSet
EndChar

StartChar: fi
Encoding: 174 64257 177
Width: 1000
Flags: W
HStem: 344.01 80.01<31.12 81.34 164.72 303.67> 551.17 83.83<207.964 296.923>
VStem: 81.34 80.38<3.05176e-05 344.01> 85.35 79.37<424.02 488.959> 304.57 79.07<3.05176e-05 344.01 476.47 541.21>
LayerCount: 2
Fore
SplineSet
388.64 471.47 m 1,0,-1
 294.57 471.47 l 1,1,-1
 294.57 476.47 l 2,2,3
 294.57 546.17 294.57 546.17 247.25 546.17 c 0,4,5
 204.567 546.17 204.567 546.17 189.154 521.219 c 128,-1,6
 173.742 496.269 173.742 496.269 173.742 415.02 c 1,7,-1
 388.64 415.02 l 5,8,-1
 388.64 -4.99997 l 1,9,-1
 291.67 -5 l 1,10,-1
 291.67 325.01 l 1,11,-1
 170.72 325.01 l 1,12,-1
 170.72 -5 l 1,13,-1
 72.3398 -5 l 1,14,-1
 72.3398 326.99 l 1,15,-1
 22.1201 326.99 l 1,16,-1
 22.1201 415.02 l 1,17,-1
 76.373 415.02 l 1,18,19
 76.373 534.401 76.373 534.401 124.827 587.2 c 128,-1,20
 173.28 640 173.28 640 245 640 c 0,21,22
 388.64 640 388.64 640 388.64 476.47 c 1,23,-1
 388.64 471.47 l 1,0,-1
EndSplineSet
LCarets2: 1 0 
Ligature2: "'liga' Standard Ligatures in Latin lookup 0 subtable" f i
EndChar

StartChar: fl
Encoding: 175 64258 178
Width: 477
Flags: W
HStem: 0 21G<81.34 161.72 333.41 413.79> 344.01 80.01<31.12 81.34 164.71 268.15> 567.76 74.51<221.73 333.41>
VStem: 81.34 80.38<0 344.01> 85.35 79.36<424.02 502.254> 333.41 80.38<0 567.76>
LayerCount: 2
Fore
SplineSet
259.572 646.26 m 2,0,-1
 413.79 646.26 l 1,1,-1
 418.79 646.26 l 1,2,-1
 418.79 -5 l 1,3,-1
 321.41 -5 l 1,4,-1
 321.41 562.76 l 1,5,-1
 254.77 562.76 l 2,6,7
 210.691 562.76 210.691 562.76 191.708 538.056 c 128,-1,8
 172.726 513.352 172.726 513.352 172.726 415.02 c 5,9,-1
 252.15 415.02 l 5,10,-1
 252.15 325.01 l 5,11,-1
 169.72 325.01 l 5,12,-1
 169.72 -5 l 1,13,-1
 72.3398 -5 l 1,14,-1
 72.3398 326.99 l 5,15,-1
 22.1201 326.99 l 5,16,-1
 22.1201 415.02 l 5,17,-1
 76.374 415.02 l 5,18,19
 76.374 526.134 76.374 526.134 118.237 581.798 c 0,20,21
 166.717 646.26 166.717 646.26 259.572 646.26 c 2,0,-1
EndSplineSet
LCarets2: 1 0 
Ligature2: "'liga' Standard Ligatures in Latin lookup 0 subtable" f l
EndChar

StartChar: uniFB06
Encoding: 326 64262 179
Width: 429
Flags: W
HStem: 0 21G<262.53 341.99> 339.02 85<216.81 262.53 343.21 393.66> 570.15 71.54<174.643 266.51>
VStem: 44.77 78.67<-3.05176e-05 474.112> 262.53 79.46<0 339.02> 266.51 76.7<424.02 570.15>
LayerCount: 2
Fore
SplineSet
204.25 646.69 m 2,0,-1
 355.21 646.69 l 1,1,-1
 355.21 415.02 l 5,2,-1
 405.66 415.02 l 5,3,-1
 405.66 320.02 l 5,4,-1
 353.99 320.02 l 5,5,-1
 353.99 -5 l 1,6,-1
 257.53 -5 l 1,7,-1
 257.53 320.98 l 5,8,-1
 211.81 320.98 l 5,9,-1
 211.81 415.02 l 5,10,-1
 261.51 415.02 l 5,11,-1
 261.51 565.15 l 1,12,-1
 216.23 565.15 l 2,13,14
 169.304 565.15 169.304 565.15 145.438 523.923 c 0,15,16
 128.44 494.559 128.44 494.559 128.44 419.02 c 2,17,-1
 128.44 -4 l 1,18,-1
 32.7695 -5 l 1,19,-1
 32.7695 420.99 l 2,20,21
 32.7695 476.885 32.7695 476.885 46.0762 524.402 c 0,22,23
 57.7029 565.921 57.7029 565.921 94.6396 601.129 c 0,24,25
 142.438 646.69 142.438 646.69 204.25 646.69 c 2,0,-1
EndSplineSet
LCarets2: 1 -2 
Ligature2: "'dlig' optionale Ligaturen in Latin lookup 1 subtable" s t
EndChar

StartChar: minus
Encoding: 327 -1 180
Width: 470
Flags: W
HStem: 213.5 98<40.5 446.5>
LayerCount: 2
Fore
SplineSet
446.5 213.5 m 1,0,-1
 40.5 213.5 l 1,1,-1
 40.5 311.5 l 1,2,-1
 446.5 311.5 l 1,3,-1
 446.5 213.5 l 1,0,-1
EndSplineSet
EndChar

StartChar: endash
Encoding: 177 8211 181
Width: 529
Flags: W
HStem: 222 81<49 438>
LayerCount: 2
Fore
SplineSet
483 217 m 5,0,-1
 44 217 l 1,1,-1
 44 308 l 1,2,-1
 483 308 l 5,3,-1
 483 217 l 5,0,-1
EndSplineSet
EndChar

StartChar: emdash
Encoding: 208 8212 182
Width: 734
Flags: W
HStem: 222 81<49 438>
LayerCount: 2
Fore
SplineSet
688 217 m 5,0,-1
 44 217 l 1,1,-1
 44 308 l 1,2,-1
 688 308 l 5,3,-1
 688 217 l 5,0,-1
EndSplineSet
EndChar
